<?xml version="1.0" encoding="utf-8"?>
<!-- Generator: Adobe Illustrator 23.0.3, SVG Export Plug-In . SVG Version: 6.00 Build 0)  -->
<svg version="1.1" xmlns="http://www.w3.org/2000/svg" xmlns:xlink="http://www.w3.org/1999/xlink" x="0px" y="0px"
	 viewBox="0 0 1612.5 462.4" style="enable-background:new 0 0 1612.5 462.4;" xml:space="preserve">
<style type="text/css">
	.st0{fill:#AA8329;}
	.st1{fill:#282929;}
	.st2{fill:#020203;}
</style>
<g id="Calque_1">
	<g>
		<g>
			<path class="st0" d="M321.3,162.1c21.6,0,42.6,7.5,59.3,21.3c4.5,3.7,11.1,3,14.8-1.4c3.7-4.5,3-11.1-1.4-14.8
				c-20.4-16.8-46.2-26-72.6-26c-63,0-114.2,51.2-114.2,114.2s51.2,114.2,114.2,114.2c26.4,0,52.2-9.2,72.6-26
				c4.5-3.7,5.1-10.3,1.4-14.8c-3.7-4.5-10.3-5.1-14.8-1.4c-16.6,13.7-37.7,21.3-59.3,21.3c-51.4,0-93.2-41.8-93.2-93.2
				S269.9,162.1,321.3,162.1z"/>
			<path class="st1" d="M321.3,141.1c26.4,0,52.2,9.2,72.6,26c4.5,3.7,5.1,10.3,1.4,14.8c-2.1,2.5-5.1,3.8-8.1,3.8
				c-2.3,0-4.7-0.8-6.7-2.4c-16.6-13.7-37.7-21.3-59.3-21.3c-51.4,0-93.2,41.8-93.2,93.2s41.8,93.2,93.2,93.2
				c21.6,0,42.6-7.5,59.3-21.3c2-1.6,4.3-2.4,6.7-2.4c3,0,6,1.3,8.1,3.8c3.7,4.5,3,11.1-1.4,14.8c-20.4,16.8-46.2,26-72.6,26
				c-63,0-114.2-51.2-114.2-114.2S258.3,141.1,321.3,141.1 M321.3,139.3c-63.9,0-116,52-116,116s52,116,116,116
				c26.9,0,53-9.4,73.7-26.4c2.5-2.1,4.1-5,4.4-8.3c0.3-3.3-0.7-6.4-2.7-9c-2.3-2.8-5.8-4.5-9.5-4.5c-2.8,0-5.6,1-7.8,2.8
				c-16.3,13.4-37,20.8-58.1,20.8c-50.4,0-91.5-41-91.5-91.5s41-91.5,91.5-91.5c21.2,0,41.8,7.4,58.1,20.8c2.2,1.8,5,2.8,7.8,2.8
				c3.7,0,7.1-1.6,9.5-4.5c2.1-2.5,3.1-5.7,2.7-9c-0.3-3.3-1.9-6.2-4.4-8.3C374.3,148.7,348.1,139.3,321.3,139.3L321.3,139.3z"/>
		</g>
		<g>
			<path class="st0" d="M458.7,152.2c-17.1,0-33.8,6-47,16.9c-2.4,2-3.8,5-3.8,8.1V275c0,0.1,0,0.1,0,0.2V359
				c0,5.8,4.7,10.5,10.5,10.5s10.5-4.7,10.5-10.5v-65.3c9.3,4.1,19.5,6.3,29.8,6.3c40.7,0,73.9-33.1,73.9-73.9
				C532.6,185.4,499.4,152.2,458.7,152.2z M458.7,279c-10.7,0-21.1-3.2-29.8-9.2v-87.5c8.7-6,19.2-9.2,29.8-9.2
				c29.2,0,52.9,23.7,52.9,52.9S487.9,279,458.7,279z"/>
			<path class="st1" d="M458.7,152.2c40.7,0,73.9,33.1,73.9,73.9c0,40.7-33.1,73.9-73.9,73.9c-10.3,0-20.5-2.2-29.8-6.3V359
				c0,5.8-4.7,10.5-10.5,10.5c-5.8,0-10.5-4.7-10.5-10.5v-83.9c0-0.1,0-0.1,0-0.2v-97.8c0-3.1,1.4-6.1,3.8-8.1
				C424.9,158.2,441.6,152.2,458.7,152.2 M458.7,279c29.2,0,52.9-23.7,52.9-52.9s-23.7-52.9-52.9-52.9c-10.7,0-21.1,3.2-29.8,9.2
				v87.5C437.6,275.8,448,279,458.7,279 M458.7,150.4c-17.5,0-34.6,6.1-48.1,17.3c-2.8,2.3-4.5,5.8-4.5,9.5V275c0,0,0,0.1,0,0.2
				l0,83.9c0,6.8,5.5,12.3,12.3,12.3s12.3-5.5,12.3-12.3v-62.7c9,3.6,18.4,5.4,28.1,5.4c41.7,0,75.7-33.9,75.7-75.7
				C534.3,184.4,500.4,150.4,458.7,150.4L458.7,150.4z M430.6,183.3c8.4-5.5,18-8.4,28.1-8.4c28.2,0,51.2,23,51.2,51.2
				c0,28.2-23,51.2-51.2,51.2c-10,0-19.7-2.9-28.1-8.4V183.3L430.6,183.3z"/>
		</g>
		<g>
			<path class="st0" d="M191.9,258.2c0-59.6,40.2-111.8,97.8-127c5.6-1.5,8.9-7.2,7.5-12.8c-1.5-5.6-7.2-8.9-12.8-7.5
				c-66.3,17.5-112.7,77.2-113.4,145.7c-48.4-33-69.3-94.3-50.7-150c1.8-5.5-1.1-11.4-6.6-13.3c-5.5-1.8-11.4,1.1-13.3,6.6
				c-21.8,65.5,3.3,137.7,61.1,175.5c5.1,3.4,10.5,6.4,15.9,9.1c1.5,0.7,3.1,1.1,4.6,1.1c0.1,0,0.1,0,0.2,0c0,0,0.1,0,0.1,0
				c0.4,0,0.8,0,1.3-0.1c5.7-0.7,9.8-5.9,9.2-11.7C192.2,268.8,191.9,263.5,191.9,258.2z"/>
			<path class="st1" d="M110.3,92.9c1.1,0,2.2,0.2,3.3,0.5c5.5,1.8,8.5,7.8,6.6,13.3c-18.6,55.7,2.3,117,50.7,150
				c0.7-68.5,47.1-128.2,113.4-145.7c0.9-0.2,1.8-0.3,2.7-0.3c4.6,0,8.9,3.1,10.1,7.8c1.5,5.6-1.9,11.3-7.5,12.8
				c-57.6,15.2-97.8,67.4-97.8,127c0,5.3,0.3,10.6,0.9,15.8c0.7,5.7-3.4,11-9.2,11.7c-0.4,0.1-0.8,0.1-1.3,0.1c0,0-0.1,0-0.1,0
				c-0.1,0-0.1,0-0.2,0c-1.6,0-3.1-0.4-4.6-1.1c-5.5-2.7-10.8-5.8-15.9-9.1c-57.8-37.8-83-110-61.1-175.5
				C101.9,95.7,106,92.9,110.3,92.9 M110.3,91.1v1.8V91.1c-5.3,0-9.9,3.4-11.6,8.4c-22.1,66.2,3.3,139.3,61.8,177.5
				c5.2,3.4,10.6,6.5,16.1,9.2c1.7,0.8,3.5,1.3,5.4,1.3c0.1,0,0.1,0,0.2,0c0,0,0.1,0,0.1,0c0.5,0,1,0,1.5-0.1c3.2-0.4,6.2-2,8.2-4.6
				c2-2.6,2.9-5.8,2.5-9c-0.6-5.1-0.9-10.4-0.9-15.6c0-58.8,39.7-110.3,96.4-125.3c6.5-1.7,10.4-8.4,8.7-15
				c-1.4-5.4-6.3-9.1-11.8-9.1c-1.1,0-2.1,0.1-3.1,0.4c-16.5,4.3-32,11.3-46.1,20.7c-13.8,9.2-25.9,20.5-36.1,33.6
				c-10.2,13.1-18.2,27.7-23.7,43.3c-5.3,15-8.2,30.6-8.7,46.4c-45.7-32.9-65.2-92.5-47.3-146.1c1-3.1,0.8-6.4-0.7-9.4
				c-1.5-2.9-4-5.1-7.1-6.1C113,91.3,111.7,91.1,110.3,91.1L110.3,91.1z"/>
		</g>
	</g>
	<g>
		<path class="st0" d="M674,280.9c0,25.3-22,35.1-41.2,35.1h-15.9v33.3c0.2,12.9,1.1,19.5,11.2,19.5v0.9h-49.7v-0.9
			c10.1,0,11.2-6.5,11.2-19.5V266c0-13.1-1.1-19.5-11.2-19.5v-0.9h56.3C651.7,245.6,674,255.6,674,280.9z M644.8,280.9
			c0-16.5-4.2-34.3-14.5-34.3H628c-10.1,0-11,6.4-11.2,19.5v49c5,0,10.1,0,13.5,0C643.6,315,644.8,297.2,644.8,280.9z"/>
		<path class="st2" d="M773.2,368.2v1.1c-2.1,1.2-5.7,2.1-9,2.1c-10.3,0-28.7-1.4-31.7-16.5c-3.4,7.1-8.5,12.7-15.9,14.9
			c-13.3,4.1-35.9,2.5-35.2-16.8c0.9-22,25.3-19.3,43-25.3c3.4-1.2,5.8-2.5,7.6-3.9c0-5.8,0-11.7,0-16.3c0-15,0.9-26.4-12-26.4
			c-11.5,0-18.8,4.1-21.4,9.6c-2.5,5.7,3.2,8,4.6,12.9c1.4,4.8-2.5,10.1-8.7,8.9c-5.3-1.1-8.7-7.6-5.7-14.9
			c2.8-6.6,12.7-17.2,31.7-17.2c16.6,0,38.2,5.7,38.2,29.6c0,17.7,0,41.3,0,41.3c0,12,0.4,18.9,8.5,18.9
			C769.8,370.1,772.3,368.9,773.2,368.2z M732.3,353.6c-0.2-1.1-0.4-2.1-0.4-3.4c0,0,0-12.7,0-25.5c-1.6,1.1-3.9,2.1-6.7,3.2
			c-8.7,3.2-18.8,4.8-19.8,20.9c-1.2,16.1,3.4,24.4,14.2,18.9C725.6,365,729.4,359.7,732.3,353.6z"/>
		<path class="st2" d="M829.5,368.2v0.9c-2.7,1.4-6,2.3-11.2,2.3c-12,0-32.6-1.8-32.6-28c0,0,0-45,0-60.4h-8.1v-0.9
			c2.8,0,8.1,0,8.1,0s0-5.7,0-6.6c9.4,0,22.3-3.9,25.7-15h0.4h0.5v21.6h15.8v0.9h-15.8v63.9c0,11.9,0.9,23,9.4,23
			C825.2,369.9,828.2,368.7,829.5,368.2z"/>
		<path class="st2" d="M912.9,293.3c-1.6,6.7-10.1,7.6-14.2,5.1c-6.7-4.4-3.2-13.1-9.6-11.2c-6,1.8-12.9,11.5-15.8,21.1
			c0,0.2,0,40.9,0,40.9c0.2,14.3,1.8,19.5,11.2,19.5v0.9h-48.9v-0.9c9.6,0,11.2-5.1,11.2-19.5v-46.9c0-14.5-1.6-19.3-11.2-19.3v-0.9
			h40.7v0.9c-1.6,0.9-2.7,7.6-2.8,22.8c4.8-15.2,17.9-24.8,25.1-25.5C909.1,279.5,915,285.3,912.9,293.3z"/>
		<path class="st2" d="M959.2,349.4c0,14.3,1.6,19.3,11.2,19.3v0.9h-49v-0.9c9.6,0,11.2-5.1,11.2-19.5v-46.9
			c0-14.3-1.6-19.3-11.2-19.3v-0.9h40.7v0.9c-1.6,0.9-2.8,8.7-2.8,26.6v39.7V349.4z M932,253.8c0-8.1,6.2-14.5,13.8-14.5
			c7.8,0,14,6.4,14,14.5c0,8-6.2,14.5-14,14.5C938.2,268.3,932,261.8,932,253.8z"/>
		<path class="st2" d="M1129.4,349.2c0,14.5,1.8,19.5,11.2,19.5v0.9h-48.9v-0.9c9.4,0,11-5.1,11.2-19.5v-39.7c0-12,0.7-27.4-12-27.4
			c-8.1,0-16.1,7.1-20.5,16.8c1.4,4.1,2.1,8.7,2.1,14v36.3c0,14.3,1.6,19.5,11.2,19.5v0.9h-49v-0.9c9.6,0,11.2-5.1,11.2-19.5v-39.7
			c0-12,0.9-27.4-11.9-27.4c-7.1,0-14.2,5.1-18.2,13.1c-0.2,3.7-0.4,54-0.4,54c0.2,14.3,1.8,19.5,11.2,19.5v0.9h-48.9v-0.9
			c9.4,0,11.2-5.1,11.2-19.5v-46.9c0-14.3-1.8-19.3-11.2-19.3v-0.9h40.7v0.9c-1.1,0.5-1.9,3.7-2.5,10.4c5.3-8.1,11.3-13.1,25.3-13.1
			c14,0,24.4,5.5,28.9,17.7c5.8-11,12.9-17.7,28.1-17.7c18.9,0,31.3,9.9,31.3,32.6V349.2z"/>
		<path class="st2" d="M1205.5,371.2c-23.7,1.8-53.5-9.7-55.9-41.1c-2.3-30.1,19.7-46.7,44.6-49.6c25.1-2.7,54.7,11.2,56.3,40.9
			C1252.1,350.8,1229.2,369.6,1205.5,371.2z M1222.5,322.8c-2.3-25.1-13.5-42.8-28.1-41.6c-14.7,1.4-19.5,24.4-17,47.8
			c2.7,24.4,13.3,42.8,28.1,41.4C1220.4,369,1224.6,346.4,1222.5,322.8z"/>
		<path class="st2" d="M1297.4,349.4c0,14.3,1.6,19.3,11.2,19.3v0.9h-49v-0.9c9.6,0,11.2-5.1,11.2-19.5v-46.9
			c0-14.3-1.6-19.3-11.2-19.3v-0.9h40.7v0.9c-1.6,0.9-2.8,8.7-2.8,26.6v39.7V349.4z M1270.1,253.8c0-8.1,6.2-14.5,13.8-14.5
			c7.8,0,14,6.4,14,14.5c0,8-6.2,14.5-14,14.5C1276.3,268.3,1270.1,261.8,1270.1,253.8z"/>
		<path class="st2" d="M1411.4,349.4c0,14.3,1.8,19.3,11.2,19.3v0.9h-48.9v-0.9c9.4,0,11-5.1,11.2-19.5v-39.7c0-12,0.7-27.4-12-27.4
			c-7.1,0-14.9,5.1-18.9,13.1c-0.4,3.9-0.4,8.5-0.4,14.3v39.7c0,14.3,1.6,19.5,11.2,19.5v0.9h-49v-0.9c9.6,0,11.2-5.1,11.2-19.5
			v-46.9c0-14.5-1.6-19.3-11.2-19.3v-0.9h40.9v0.9c-1.1,0.5-2.1,3.7-2.7,10.4c5.5-8.1,12.2-13.1,26.2-13.1
			c18.9,0,31.3,9.9,31.3,32.6v36.3V349.4z"/>
		<path class="st2" d="M1457.1,310.6c-0.7,5.8-1.4,12-0.9,17.9c1.6,21.2,11.3,41.8,31.3,42c10.4,0,23.7-5.5,29.7-11.2v2.1
			c-6.7,4.2-16.6,9-29.6,9.7c-25.3,1.4-56.5-10.6-57.9-42.3c-1.4-31.7,24.4-47.3,48.9-48.3c24.1-1.1,40.4,9.2,43,30.1H1457.1z
			 M1457.1,310.1h39.7c-0.5-15-4.4-29.7-18.1-28.9C1465.6,281.9,1459.2,294.9,1457.1,310.1z"/>
		<g>
			<path class="st0" d="M683.2,106.9v0.7c-9.3,1.6-16.1,8-21.7,22.4c-4.9,12.6-27.8,78.2-27.8,78.2h-3.2c0,0-31.6-72-35.3-81.2
				c-3.8-9.3-7.8-19.4-16.9-19.4v-0.7h45.6v0.7c-7,0-8,2.8-4.1,13.3c3.8,10,21.6,51.6,23.9,56.9c6.7-18.8,14-40,14.9-42.6
				c4.6-12.3,3.5-27.7-6.2-27.7v-0.7H683.2z"/>
			<path class="st2" d="M722.6,209.5c-19.4,1.4-43.7-8-45.8-33.6c-1.9-24.6,16.1-38.2,36.5-40.6c20.6-2.2,44.8,9.1,46.1,33.5
				C760.6,192.9,742,208.2,722.6,209.5z M736.5,170c-1.9-20.6-11-35-23-34c-12,1.2-15.9,20-13.9,39.1c2.2,20,10.9,35,23,33.9
				C734.7,207.8,738.2,189.3,736.5,170z"/>
			<path class="st2" d="M809.2,207.1v0.7c-2.2,1.2-4.9,1.9-9.1,1.9c-9.8,0-26.6-1.4-26.6-22.9c0,0,0-36.8,0-49.4h-6.7v-0.7
				c2.3,0,6.7,0,6.7,0s0-4.6,0-5.4c7.7,0,18.2-3.2,21-12.3h0.3h0.4v17.7H808v0.7h-12.9v52.3c0,9.7,0.7,18.8,7.7,18.8
				C805.7,208.5,808.1,207.5,809.2,207.1z"/>
			<path class="st2" d="M877.4,145.8c-1.3,5.5-8.3,6.2-11.6,4.2c-5.5-3.6-2.6-10.7-7.8-9.1c-4.9,1.4-10.6,9.4-12.9,17.2
				c0,0.1,0,33.5,0,33.5c0.1,11.7,1.4,15.9,9.1,15.9v0.7h-40v-0.7c7.8,0,9.1-4.2,9.1-15.9v-38.4c0-11.9-1.3-15.8-9.1-15.8v-0.7h33.3
				v0.7c-1.3,0.7-2.2,6.2-2.3,18.7c3.9-12.5,14.6-20.3,20.6-20.9C874.3,134.5,879.1,139.3,877.4,145.8z"/>
			<path class="st2" d="M905.3,160c-0.6,4.8-1.2,9.8-0.7,14.6c1.3,17.4,9.3,34.2,25.6,34.3c8.5,0,19.4-4.5,24.3-9.1v1.7
				c-5.5,3.5-13.6,7.4-24.2,8c-20.7,1.2-46.2-8.7-47.4-34.6c-1.2-25.9,20-38.7,40-39.5c19.7-0.9,33,7.5,35.2,24.6H905.3z
				 M905.3,159.6h32.4c-0.4-12.3-3.6-24.3-14.8-23.6C912.3,136.5,907.1,147.1,905.3,159.6z"/>
			<path class="st0" d="M1090.8,194.5v2.3c-7.7,6.2-15.8,11.4-31.6,12.5c-30,1.9-60.1-12.3-62.4-46.9c-2.5-34.6,23.2-53.9,53.2-56.5
				c8.8-0.9,19.7,1.3,26.5,3c6.7,1.7,11.9,2.5,11.9-7.4h0.7V138h-0.7c0-9-12.6-33.6-38.2-31.6c-22.2,1.9-29.8,31.6-28.1,54.6
				c1.9,23.2,14.3,48.1,37.2,47.5C1072.9,208.2,1083.2,201.9,1090.8,194.5z"/>
			<path class="st2" d="M1145.4,209.5c-19.4,1.4-43.7-8-45.8-33.6c-1.9-24.6,16.1-38.2,36.5-40.6c20.6-2.2,44.8,9.1,46.1,33.5
				C1183.5,192.9,1164.9,208.2,1145.4,209.5z M1159.3,170c-1.9-20.6-11-35-23-34c-12,1.2-15.9,20-13.9,39.1c2.2,20,10.9,35,23,33.9
				C1157.6,207.8,1161.1,189.3,1159.3,170z"/>
			<path class="st2" d="M1268,191.7c0,11.7,1.4,15.8,9.1,15.8v0.7h-40v-0.7c7.7,0,9-4.2,9.1-15.9v-32.4c0-9.8,0.6-22.4-9.8-22.4
				c-5.8,0-12.2,4.2-15.5,10.7c-0.3,3.2-0.3,7-0.3,11.7v32.4c0,11.7,1.3,15.9,9.1,15.9v0.7h-40.1v-0.7c7.8,0,9.1-4.2,9.1-15.9v-38.4
				c0-11.9-1.3-15.8-9.1-15.8v-0.7h33.5v0.7c-0.9,0.4-1.7,3-2.2,8.5c4.5-6.7,10-10.7,21.4-10.7c15.5,0,25.6,8.1,25.6,26.6v29.7
				V191.7z"/>
			<path class="st2" d="M1343.3,189.6c-1.7,12.7-14,20-31.3,20c-14.8,0-22.9-7.5-25.6-11.6c-3.3-4.8-2.2-10.9,1.6-12.2
				c4.6-1.4,8.1,1.9,7.8,5.8c-0.3,4.2-5.5,7.2-1.7,11.3c2.8,3.2,9.1,6.1,16.9,6.1c9.4,0,16.4-4.3,16.8-12
				c1-19.4-43.4-14.6-41.9-42.9c0.7-12.9,12.3-18.8,25.6-18.8c14,0,22.3,6.1,25.1,10.1c3.2,4.8,2.5,10.6-1.7,12
				c-3.8,1.4-8.1-1.4-7.8-5.6c0.4-4.2,4.9-7.1,1.4-11c-2.6-2.8-7.8-4.8-14-4.8c-7.4,0-12,3.8-12,10.9
				C1302.4,162.9,1347.2,160.2,1343.3,189.6z"/>
			<path class="st2" d="M1376.2,160c-0.6,4.8-1.2,9.8-0.7,14.6c1.3,17.4,9.3,34.2,25.6,34.3c8.5,0,19.4-4.5,24.3-9.1v1.7
				c-5.5,3.5-13.6,7.4-24.2,8c-20.7,1.2-46.2-8.7-47.4-34.6c-1.2-25.9,20-38.7,40-39.5c19.7-0.9,33,7.5,35.2,24.6H1376.2z
				 M1376.2,159.6h32.4c-0.4-12.3-3.6-24.3-14.8-23.6C1383.1,136.5,1377.9,147.1,1376.2,159.6z"/>
			<path class="st2" d="M1466.5,191.7c0,11.7,1.3,15.8,9.1,15.8v0.7h-40.1v-0.7c7.8,0,9.1-4.2,9.1-15.9v-38.4
				c0-11.7-1.3-15.8-9.1-15.8v-0.7h33.3v0.7c-1.3,0.7-2.3,7.1-2.3,21.7v32.4V191.7z M1444.2,113.5c0-6.7,5.1-11.9,11.3-11.9
				c6.4,0,11.4,5.2,11.4,11.9c0,6.5-5.1,11.9-11.4,11.9C1449.3,125.4,1444.2,120,1444.2,113.5z"/>
			<path class="st2" d="M1512.3,191.6c0,11.9,1.4,15.9,9.1,15.9v0.7h-40v-0.7c7.7,0,9-4.2,9.1-15.9v-73.4
				c-0.1-11.7-1.4-15.8-9.1-15.8v-0.7h33.3v0.7c-1.4,0.7-2.5,7.1-2.5,21.7V191.6z"/>
		</g>
	</g>
</g>
<g id="Calque_2">
</g>
<g id="Calque_3">
</g>
</svg>
