<?xml version="1.0" encoding="utf-8"?>
<!-- Generator: Adobe Illustrator 23.0.3, SVG Export Plug-In . SVG Version: 6.00 Build 0)  -->
<svg version="1.1" xmlns="http://www.w3.org/2000/svg" xmlns:xlink="http://www.w3.org/1999/xlink" x="0px" y="0px"
	 viewBox="0 0 996.1 695.6" style="enable-background:new 0 0 996.1 695.6;" xml:space="preserve">
<style type="text/css">
	.st0{fill:#AA8329;}
	.st1{fill:#282929;}
</style>
<g id="Calque_1">
</g>
<g id="Calque_2">
	<g>
		<g>
			<path class="st0" d="M514,220.6c39.7,0,78.4,13.9,109,39.1c8.2,6.8,20.4,5.6,27.1-2.6c6.8-8.2,5.6-20.4-2.6-27.1
				c-37.5-30.9-84.9-47.9-133.5-47.9c-115.8,0-210.1,94.2-210.1,210.1S398.2,602.2,514,602.2c48.6,0,96.1-17,133.5-47.9
				c8.2-6.8,9.4-18.9,2.6-27.1c-6.8-8.2-18.9-9.4-27.1-2.6c-30.6,25.2-69.3,39.1-109,39.1c-94.6,0-171.5-76.9-171.5-171.5
				S419.4,220.6,514,220.6z"/>
			<path class="st1" d="M514,182.1c48.6,0,96.1,17,133.5,47.9c8.2,6.8,9.4,18.9,2.6,27.1c-3.8,4.6-9.3,7-14.9,7
				c-4.3,0-8.7-1.4-12.3-4.4c-30.6-25.2-69.3-39.1-109-39.1c-94.6,0-171.5,76.9-171.5,171.5S419.4,563.6,514,563.6
				c39.7,0,78.4-13.9,109-39.1c3.6-3,7.9-4.4,12.3-4.4c5.6,0,11.1,2.4,14.9,7c6.8,8.2,5.6,20.4-2.6,27.1
				c-37.5,30.9-84.9,47.9-133.5,47.9c-115.8,0-210.1-94.2-210.1-210.1S398.2,182.1,514,182.1 M514,178.8
				c-117.6,0-213.3,95.7-213.3,213.3S396.4,605.5,514,605.5c49.4,0,97.6-17.3,135.6-48.6c4.6-3.8,7.5-9.2,8.1-15.2
				c0.6-6-1.2-11.8-5-16.5c-4.3-5.2-10.6-8.2-17.4-8.2c-5.2,0-10.3,1.8-14.3,5.1c-30,24.7-68,38.4-106.9,38.4
				c-92.8,0-168.3-75.5-168.3-168.3S421.2,223.9,514,223.9c39,0,76.9,13.6,106.9,38.4c4,3.3,9.1,5.1,14.3,5.1c6.8,0,13.1-3,17.4-8.2
				c3.8-4.6,5.6-10.5,5-16.5c-0.6-6-3.5-11.4-8.1-15.2C611.6,196.1,563.4,178.8,514,178.8L514,178.8z"/>
		</g>
		<g>
			<path class="st0" d="M766.8,202.5c-31.5,0-62.2,11-86.4,31c-4.4,3.7-7,9.1-7,14.9v179.9c0,0.1,0,0.2,0,0.3v154.3
				c0,10.6,8.6,19.3,19.3,19.3c10.6,0,19.3-8.6,19.3-19.3V462.8c17.2,7.6,35.9,11.6,54.9,11.6c75,0,135.9-61,135.9-135.9
				C902.7,263.5,841.7,202.5,766.8,202.5z M766.8,435.8c-19.6,0-38.8-6-54.9-16.9V258c16.1-11,35.3-16.9,54.9-16.9
				c53.7,0,97.4,43.7,97.4,97.4S820.5,435.8,766.8,435.8z"/>
			<path class="st1" d="M766.8,202.5c75,0,135.9,61,135.9,135.9c0,75-61,135.9-135.9,135.9c-19,0-37.7-4-54.9-11.6v120.2
				c0,10.6-8.6,19.3-19.3,19.3c-10.6,0-19.3-8.6-19.3-19.3V428.6c0-0.1,0-0.2,0-0.3V248.4c0-5.8,2.6-11.2,7-14.9
				C704.6,213.5,735.3,202.5,766.8,202.5 M766.8,435.8c53.7,0,97.4-43.7,97.4-97.4S820.5,241,766.8,241c-19.6,0-38.8,6-54.9,16.9
				v160.9C728,429.8,747.2,435.8,766.8,435.8 M766.8,199.2c-32.2,0-63.6,11.3-88.5,31.7c-5.2,4.3-8.2,10.6-8.2,17.4v179.9
				c0,0.1,0,0.2,0,0.3l0,154.3c0,12.4,10.1,22.5,22.5,22.5c12.4,0,22.5-10.1,22.5-22.5V467.6c16.5,6.6,33.8,9.9,51.6,9.9
				c76.7,0,139.2-62.4,139.2-139.2C905.9,261.7,843.5,199.2,766.8,199.2L766.8,199.2z M715.2,259.7c15.4-10.1,33.2-15.4,51.6-15.4
				c51.9,0,94.1,42.2,94.1,94.1c0,51.9-42.2,94.1-94.1,94.1c-18.4,0-36.2-5.3-51.6-15.4V259.7L715.2,259.7z"/>
		</g>
		<g>
			<path class="st0" d="M276.1,397.5c0-109.6,73.9-205.7,179.8-233.6c10.3-2.7,16.4-13.3,13.7-23.6c-2.7-10.3-13.3-16.4-23.6-13.7
				c-121.9,32.1-207.2,142.1-208.5,268c-89.1-60.7-127.4-173.4-93.2-275.9c3.4-10.1-2.1-21-12.2-24.4c-10.1-3.4-21,2.1-24.4,12.2
				C67.6,227,113.8,359.8,220.2,429.4c9.4,6.2,19.3,11.8,29.3,16.8c2.8,1.4,5.7,2,8.5,2c0.1,0,0.3,0,0.4,0c0.1,0,0.2,0,0.2,0
				c0.8,0,1.5,0,2.3-0.1c10.6-1.3,18.1-10.9,16.8-21.4C276.7,417,276.1,407.2,276.1,397.5z"/>
			<path class="st1" d="M126,93.4c2,0,4.1,0.3,6.1,1c10.1,3.4,15.6,14.3,12.2,24.4c-34.2,102.4,4.2,215.2,93.2,275.9
				c1.3-125.9,86.7-235.9,208.5-268c1.6-0.4,3.3-0.6,4.9-0.6c8.5,0,16.4,5.7,18.6,14.4c2.7,10.3-3.4,20.8-13.7,23.6
				C350,191.8,276.1,287.9,276.1,397.5c0,9.7,0.6,19.5,1.7,29.1c1.3,10.6-6.3,20.2-16.8,21.4c-0.8,0.1-1.6,0.1-2.3,0.1
				c-0.1,0-0.2,0-0.2,0c-0.1,0-0.3,0-0.4,0c-2.9,0-5.8-0.6-8.5-2c-10-5-19.9-10.6-29.3-16.8C113.8,359.8,67.6,227,107.7,106.6
				C110.4,98.5,118,93.4,126,93.4 M126,90.1v3.3V90.1c-9.7,0-18.3,6.2-21.4,15.4C64,227.4,110.8,361.7,218.4,432.1
				c9.5,6.2,19.5,12,29.7,17c3.1,1.6,6.5,2.3,10,2.3c0.1,0,0.2,0,0.4,0c0.1,0,0.2,0,0.3,0c0.9,0,1.8-0.1,2.7-0.2
				c6-0.7,11.3-3.7,15-8.5c3.7-4.7,5.4-10.6,4.7-16.6c-1.1-9.5-1.7-19.1-1.7-28.7c0-108.2,72.9-202.9,177.4-230.4
				c12-3.2,19.2-15.5,16-27.5c-2.6-9.9-11.6-16.8-21.8-16.8c-1.9,0-3.9,0.3-5.8,0.8c-30.3,8-58.8,20.8-84.8,38.2
				c-25.3,16.9-47.7,37.7-66.4,61.8c-18.7,24.1-33.4,50.9-43.6,79.6c-9.7,27.5-15.1,56.2-16,85.4c-84.1-60.5-119.9-170.1-87-268.7
				c1.9-5.7,1.5-11.8-1.2-17.2c-2.7-5.4-7.3-9.4-13-11.3C130.8,90.5,128.5,90.1,126,90.1L126,90.1z"/>
		</g>
	</g>
</g>
<g id="Calque_3">
</g>
</svg>
