<?xml version="1.0" encoding="utf-8"?>
<!-- Generator: Adobe Illustrator 23.0.3, SVG Export Plug-In . SVG Version: 6.00 Build 0)  -->
<svg version="1.1" xmlns="http://www.w3.org/2000/svg" xmlns:xlink="http://www.w3.org/1999/xlink" x="0px" y="0px"
	 viewBox="0 0 1055.2 737.4" style="enable-background:new 0 0 1055.2 737.4;" xml:space="preserve">
<style type="text/css">
	.st0{fill:#AA8329;}
	.st1{fill:#282929;}
	.st2{fill:#020203;}
</style>
<g id="Calque_1">
	<g>
		<g>
			<g>
				<path class="st0" d="M539.3,146c20.6,0,40.6,7.2,56.4,20.2c4.3,3.5,10.5,2.9,14-1.4c3.5-4.3,2.9-10.5-1.4-14
					c-19.4-16-43.9-24.8-69.1-24.8c-60,0-108.7,48.8-108.7,108.7s48.8,108.7,108.7,108.7c25.2,0,49.7-8.8,69.1-24.8
					c4.3-3.5,4.9-9.8,1.4-14c-3.5-4.3-9.8-4.9-14-1.4c-15.8,13-35.9,20.2-56.4,20.2c-48.9,0-88.8-39.8-88.8-88.8
					S490.4,146,539.3,146z"/>
				<path class="st1" d="M539.3,126c25.2,0,49.7,8.8,69.1,24.8c4.3,3.5,4.9,9.8,1.4,14c-2,2.4-4.8,3.6-7.7,3.6
					c-2.2,0-4.5-0.7-6.3-2.3c-15.8-13-35.9-20.2-56.4-20.2c-48.9,0-88.8,39.8-88.8,88.8s39.8,88.8,88.8,88.8
					c20.6,0,40.6-7.2,56.4-20.2c1.9-1.5,4.1-2.3,6.3-2.3c2.9,0,5.7,1.2,7.7,3.6c3.5,4.3,2.9,10.5-1.4,14
					c-19.4,16-43.9,24.8-69.1,24.8c-60,0-108.7-48.8-108.7-108.7S479.4,126,539.3,126 M539.3,124.3c-60.9,0-110.4,49.5-110.4,110.4
					s49.5,110.4,110.4,110.4c25.6,0,50.5-8.9,70.2-25.2c2.4-2,3.9-4.8,4.2-7.9c0.3-3.1-0.6-6.1-2.6-8.5c-2.2-2.7-5.5-4.2-9-4.2
					c-2.7,0-5.3,0.9-7.4,2.7c-15.5,12.8-35.2,19.8-55.3,19.8c-48,0-87.1-39.1-87.1-87.1s39.1-87.1,87.1-87.1
					c20.2,0,39.8,7,55.3,19.8c2.1,1.7,4.7,2.7,7.4,2.7c3.5,0,6.8-1.5,9-4.2c2-2.4,2.9-5.4,2.6-8.5c-0.3-3.1-1.8-5.9-4.2-7.9
					C589.8,133.3,564.9,124.3,539.3,124.3L539.3,124.3z"/>
			</g>
			<g>
				<path class="st0" d="M670.1,136.6c-16.3,0-32.2,5.7-44.7,16c-2.3,1.9-3.6,4.7-3.6,7.7v93.1c0,0.1,0,0.1,0,0.1v79.9
					c0,5.5,4.5,10,10,10s10-4.5,10-10v-62.2c8.9,3.9,18.6,6,28.4,6c38.8,0,70.4-31.6,70.4-70.4C740.5,168.1,708.9,136.6,670.1,136.6
					z M670.1,257.3c-10.1,0-20.1-3.1-28.4-8.8v-83.3c8.3-5.7,18.2-8.8,28.4-8.8c27.8,0,50.4,22.6,50.4,50.4S697.9,257.3,670.1,257.3
					z"/>
				<path class="st1" d="M670.1,136.6c38.8,0,70.4,31.6,70.4,70.4c0,38.8-31.6,70.4-70.4,70.4c-9.8,0-19.5-2.1-28.4-6v62.2
					c0,5.5-4.5,10-10,10c-5.5,0-10-4.5-10-10v-79.9c0,0,0-0.1,0-0.1v-93.1c0-3,1.3-5.8,3.6-7.7C638,142.3,653.8,136.6,670.1,136.6
					 M670.1,257.3c27.8,0,50.4-22.6,50.4-50.4s-22.6-50.4-50.4-50.4c-10.1,0-20.1,3.1-28.4,8.8v83.3
					C650.1,254.2,660,257.3,670.1,257.3 M670.1,134.9c-16.7,0-32.9,5.8-45.8,16.4c-2.7,2.2-4.2,5.5-4.2,9v93.1c0,0,0,0.1,0,0.2
					l0,79.9c0,6.4,5.2,11.7,11.7,11.7s11.7-5.2,11.7-11.7v-59.7c8.5,3.4,17.5,5.1,26.7,5.1c39.7,0,72-32.3,72-72
					C742.2,167.2,709.9,134.9,670.1,134.9L670.1,134.9z M643.4,166.2c8-5.2,17.2-8,26.7-8c26.9,0,48.7,21.9,48.7,48.7
					c0,26.9-21.9,48.7-48.7,48.7c-9.5,0-18.8-2.8-26.7-8V166.2L643.4,166.2z"/>
			</g>
			<g>
				<path class="st0" d="M416.2,237.5c0-56.7,38.3-106.5,93.1-120.9c5.3-1.4,8.5-6.9,7.1-12.2c-1.4-5.3-6.9-8.5-12.2-7.1
					c-63.1,16.6-107.3,73.5-107.9,138.7c-46.1-31.4-65.9-89.8-48.3-142.8c1.7-5.2-1.1-10.9-6.3-12.6c-5.2-1.7-10.9,1.1-12.6,6.3
					c-20.8,62.3,3.1,131.1,58.2,167.1c4.9,3.2,10,6.1,15.2,8.7c1.4,0.7,2.9,1,4.4,1c0.1,0,0.1,0,0.2,0c0,0,0.1,0,0.1,0
					c0.4,0,0.8,0,1.2-0.1c5.5-0.7,9.4-5.6,8.7-11.1C416.5,247.6,416.2,242.5,416.2,237.5z"/>
				<path class="st1" d="M338.5,80.1c1,0,2.1,0.2,3.2,0.5c5.2,1.7,8.1,7.4,6.3,12.6c-17.7,53,2.2,111.4,48.3,142.8
					c0.7-65.2,44.8-122.1,107.9-138.7c0.9-0.2,1.7-0.3,2.6-0.3c4.4,0,8.5,3,9.6,7.4c1.4,5.3-1.8,10.8-7.1,12.2
					c-54.8,14.4-93.1,64.1-93.1,120.9c0,5,0.3,10.1,0.9,15.1c0.7,5.5-3.2,10.4-8.7,11.1c-0.4,0-0.8,0.1-1.2,0.1c0,0-0.1,0-0.1,0
					c-0.1,0-0.1,0-0.2,0c-1.5,0-3-0.3-4.4-1c-5.2-2.6-10.3-5.5-15.2-8.7c-55.1-36-79-104.7-58.2-167.1
					C330.4,82.7,334.3,80.1,338.5,80.1 M338.5,78.4v1.7V78.4c-5,0-9.5,3.2-11.1,8c-21,63.1,3.2,132.6,58.9,169
					c4.9,3.2,10.1,6.2,15.3,8.8c1.6,0.8,3.4,1.2,5.2,1.2c0.1,0,0.1,0,0.2,0c0,0,0.1,0,0.1,0c0.5,0,0.9,0,1.4-0.1
					c3.1-0.4,5.9-1.9,7.8-4.4c1.9-2.4,2.8-5.5,2.4-8.6c-0.6-4.9-0.9-9.9-0.9-14.9c0-56,37.8-105,91.8-119.3c6.2-1.6,9.9-8,8.3-14.2
					c-1.3-5.1-6-8.7-11.3-8.7c-1,0-2,0.1-3,0.4c-15.7,4.1-30.4,10.8-43.9,19.7c-13.1,8.7-24.7,19.5-34.4,32
					c-9.7,12.5-17.3,26.3-22.5,41.2c-5,14.2-7.8,29.1-8.3,44.2c-43.5-31.3-62.1-88-45-139.1c1-3,0.8-6.1-0.6-8.9
					c-1.4-2.8-3.8-4.9-6.7-5.8C341,78.6,339.8,78.4,338.5,78.4L338.5,78.4z"/>
			</g>
		</g>
		<path class="st0" d="M227.3,581.1c0,21.8-18.9,30.1-35.5,30.1h-13.7v28.6c0.2,11.1,0.9,16.7,9.6,16.7v0.8H145v-0.8
			c8.7,0,9.6-5.6,9.6-16.7v-71.5c0-11.3-0.9-16.7-9.6-16.7v-0.8h48.4C208.1,550.8,227.3,559.3,227.3,581.1z M202.2,581.1
			c0-14.2-3.7-29.5-12.5-29.5h-2c-8.7,0-9.4,5.5-9.6,16.7v42.2c4.3,0,8.7,0,11.6,0C201.1,610.4,202.2,595.1,202.2,581.1z"/>
		<path class="st2" d="M312.5,656.1v0.9c-1.8,1.1-4.9,1.8-7.8,1.8c-8.8,0-24.7-1.2-27.2-14.2c-2.9,6.1-7.3,11-13.7,12.8
			c-11.4,3.5-30.9,2.1-30.3-14.5c0.8-18.9,21.8-16.6,37-21.8c2.9-1.1,5-2.1,6.5-3.3c0-5,0-10,0-14c0-12.9,0.8-22.7-10.3-22.7
			c-9.9,0-16.1,3.5-18.4,8.2c-2.1,4.9,2.7,6.8,4,11.1c1.2,4.1-2.1,8.7-7.5,7.6c-4.6-0.9-7.5-6.5-4.9-12.8c2.4-5.6,11-14.8,27.2-14.8
			c14.3,0,32.9,4.9,32.9,25.4c0,15.2,0,35.5,0,35.5c0,10.3,0.3,16.3,7.3,16.3C309.6,657.8,311.8,656.7,312.5,656.1z M277.4,643.6
			c-0.2-0.9-0.3-1.8-0.3-2.9c0,0,0-11,0-21.9c-1.4,0.9-3.3,1.8-5.8,2.7c-7.5,2.7-16.1,4.1-17,18c-1.1,13.8,2.9,21,12.2,16.3
			C271.6,653.4,274.9,648.8,277.4,643.6z"/>
		<path class="st2" d="M360.9,656.1v0.8c-2.3,1.2-5.2,2-9.6,2c-10.3,0-28-1.5-28-24c0,0,0-38.7,0-51.9h-7v-0.8c2.4,0,7,0,7,0
			s0-4.9,0-5.6c8.1,0,19.2-3.3,22.1-12.9h0.3h0.5v18.6h13.5v0.8h-13.5v54.9c0,10.2,0.8,19.8,8.1,19.8
			C357.3,657.6,359.9,656.5,360.9,656.1z"/>
		<path class="st2" d="M432.6,591.7c-1.4,5.8-8.7,6.5-12.2,4.4c-5.8-3.8-2.7-11.3-8.2-9.6c-5.2,1.5-11.1,9.9-13.5,18.1
			c0,0.2,0,35.2,0,35.2c0.2,12.3,1.5,16.7,9.6,16.7v0.8h-42v-0.8c8.2,0,9.6-4.4,9.6-16.7v-40.3c0-12.5-1.4-16.6-9.6-16.6v-0.8h35
			v0.8c-1.4,0.8-2.3,6.5-2.4,19.6c4.1-13.1,15.4-21.3,21.6-21.9C429.4,579.8,434.4,584.9,432.6,591.7z"/>
		<path class="st2" d="M472.5,640c0,12.3,1.4,16.6,9.6,16.6v0.8h-42.2v-0.8c8.2,0,9.6-4.4,9.6-16.7v-40.3c0-12.3-1.4-16.6-9.6-16.6
			v-0.8h35v0.8c-1.4,0.8-2.4,7.5-2.4,22.8v34.1V640z M449,557.8c0-7,5.3-12.5,11.9-12.5c6.7,0,12,5.5,12,12.5
			c0,6.8-5.3,12.5-12,12.5C454.4,570.3,449,564.6,449,557.8z"/>
		<path class="st2" d="M618.7,639.8c0,12.5,1.5,16.7,9.6,16.7v0.8h-42v-0.8c8.1,0,9.4-4.4,9.6-16.7v-34.1c0-10.3,0.6-23.6-10.3-23.6
			c-7,0-13.8,6.1-17.7,14.5c1.2,3.5,1.8,7.5,1.8,12v31.2c0,12.3,1.4,16.7,9.6,16.7v0.8h-42.2v-0.8c8.2,0,9.6-4.4,9.6-16.7v-34.1
			c0-10.3,0.8-23.6-10.2-23.6c-6.1,0-12.2,4.4-15.7,11.3c-0.2,3.2-0.3,46.4-0.3,46.4c0.2,12.3,1.5,16.7,9.6,16.7v0.8h-42v-0.8
			c8.1,0,9.6-4.4,9.6-16.7v-40.3c0-12.3-1.5-16.6-9.6-16.6v-0.8h35v0.8c-0.9,0.5-1.7,3.2-2.1,9c4.6-7,9.7-11.3,21.8-11.3
			c12,0,21,4.7,24.8,15.2c5-9.4,11.1-15.2,24.2-15.2c16.3,0,26.9,8.5,26.9,28V639.8z"/>
		<path class="st2" d="M684.2,658.7c-20.4,1.5-46-8.4-48.1-35.3c-2-25.9,16.9-40.2,38.4-42.6c21.6-2.3,47,9.6,48.4,35.2
			C724.2,641.2,704.6,657.3,684.2,658.7z M698.8,617.1c-2-21.6-11.6-36.8-24.2-35.8c-12.6,1.2-16.7,21-14.6,41.1
			c2.3,21,11.4,36.8,24.2,35.6C697,656.9,700.6,637.4,698.8,617.1z"/>
		<path class="st2" d="M763.2,640c0,12.3,1.4,16.6,9.6,16.6v0.8h-42.2v-0.8c8.2,0,9.6-4.4,9.6-16.7v-40.3c0-12.3-1.4-16.6-9.6-16.6
			v-0.8h35v0.8c-1.4,0.8-2.4,7.5-2.4,22.8v34.1V640z M739.7,557.8c0-7,5.3-12.5,11.9-12.5c6.7,0,12,5.5,12,12.5
			c0,6.8-5.3,12.5-12,12.5C745,570.3,739.7,564.6,739.7,557.8z"/>
		<path class="st2" d="M861.2,640c0,12.3,1.5,16.6,9.6,16.6v0.8h-42v-0.8c8.1,0,9.4-4.4,9.6-16.7v-34.1c0-10.3,0.6-23.6-10.3-23.6
			c-6.1,0-12.8,4.4-16.3,11.3c-0.3,3.3-0.3,7.3-0.3,12.3v34.1c0,12.3,1.4,16.7,9.6,16.7v0.8h-42.2v-0.8c8.2,0,9.6-4.4,9.6-16.7
			v-40.3c0-12.5-1.4-16.6-9.6-16.6v-0.8H814v0.8c-0.9,0.5-1.8,3.2-2.3,9c4.7-7,10.5-11.3,22.5-11.3c16.3,0,26.9,8.5,26.9,28v31.2
			V640z"/>
		<path class="st2" d="M900.4,606.6c-0.6,5-1.2,10.3-0.8,15.4c1.4,18.3,9.7,35.9,26.9,36.1c9,0,20.4-4.7,25.6-9.6v1.8
			c-5.8,3.7-14.3,7.8-25.4,8.4c-21.8,1.2-48.5-9.1-49.8-36.4c-1.2-27.2,21-40.6,42-41.5c20.7-0.9,34.7,7.9,37,25.9H900.4z
			 M900.4,606.2h34.1c-0.5-12.9-3.8-25.6-15.5-24.8C907.7,582,902.3,593.1,900.4,606.2z"/>
		<g>
			<path class="st0" d="M178.4,413.1v0.7c-8.8,1.5-15.3,7.6-20.7,21.4c-4.7,12-26.5,74.5-26.5,74.5h-3c0,0-30.1-68.5-33.6-77.4
				c-3.6-8.8-7.4-18.5-16.1-18.5v-0.7h43.4v0.7c-6.6,0-7.6,2.6-3.9,12.7c3.6,9.5,20.5,49.1,22.8,54.2c6.3-17.9,13.4-38.1,14.2-40.5
				c4.4-11.7,3.3-26.3-5.9-26.3v-0.7H178.4z"/>
			<path class="st2" d="M215.9,510.9c-18.5,1.4-41.6-7.6-43.6-32c-1.8-23.4,15.3-36.4,34.7-38.6c19.6-2.1,42.6,8.7,43.8,31.9
				C252.2,495,234.4,509.6,215.9,510.9z M229.1,473.2c-1.8-19.6-10.5-33.4-21.9-32.4c-11.4,1.1-15.2,19-13.2,37.2
				c2.1,19,10.3,33.4,21.9,32.3C227.5,509.2,230.8,491.6,229.1,473.2z"/>
			<path class="st2" d="M298.3,508.5v0.7c-2.1,1.1-4.7,1.8-8.7,1.8c-9.4,0-25.4-1.4-25.4-21.8c0,0,0-35,0-47h-6.3v-0.7
				c2.2,0,6.3,0,6.3,0s0-4.4,0-5.1c7.3,0,17.4-3,20-11.7h0.3h0.4v16.8h12.3v0.7H285V492c0,9.2,0.7,17.9,7.3,17.9
				C295,509.9,297.4,508.9,298.3,508.5z"/>
			<path class="st2" d="M363.3,450.2c-1.2,5.2-7.9,5.9-11,4c-5.2-3.4-2.5-10.2-7.4-8.7c-4.7,1.4-10.1,9-12.3,16.4
				c0,0.1,0,31.9,0,31.9c0.1,11.2,1.4,15.2,8.7,15.2v0.7h-38.1v-0.7c7.4,0,8.7-4,8.7-15.2v-36.5c0-11.3-1.2-15-8.7-15v-0.7h31.7v0.7
				c-1.2,0.7-2.1,5.9-2.2,17.8c3.7-11.9,13.9-19.3,19.6-19.9C360.4,439.5,364.9,444,363.3,450.2z"/>
			<path class="st2" d="M389.9,463.7c-0.6,4.6-1.1,9.4-0.7,13.9c1.2,16.5,8.8,32.5,24.4,32.7c8.1,0,18.5-4.3,23.2-8.7v1.7
				c-5.2,3.3-13,7-23,7.6c-19.7,1.1-44-8.3-45.1-33c-1.1-24.7,19-36.8,38.1-37.6c18.8-0.8,31.4,7.2,33.5,23.4H389.9z M389.9,463.3
				h30.9c-0.4-11.7-3.4-23.2-14.1-22.5C396.5,441.4,391.6,451.4,389.9,463.3z"/>
			<path class="st0" d="M566.5,496.5v2.2c-7.3,5.9-15,10.9-30.1,11.9c-28.5,1.8-57.2-11.7-59.4-44.7c-2.3-33,22.1-51.3,50.6-53.8
				c8.4-0.8,18.8,1.2,25.2,2.9c6.3,1.7,11.3,2.3,11.3-7h0.7v34.7h-0.7c0-8.5-12-32-36.4-30.1c-21.1,1.8-28.4,30.1-26.7,52
				c1.8,22.1,13.7,45.8,35.4,45.2C549.4,509.6,559.2,503.6,566.5,496.5z"/>
			<path class="st2" d="M618.5,510.9c-18.5,1.4-41.6-7.6-43.6-32c-1.8-23.4,15.3-36.4,34.7-38.6c19.6-2.1,42.6,8.7,43.8,31.9
				C654.8,495,637,509.6,618.5,510.9z M631.7,473.2c-1.8-19.6-10.5-33.4-21.9-32.4c-11.4,1.1-15.2,19-13.2,37.2
				c2.1,19,10.3,33.4,21.9,32.3C630.1,509.2,633.4,491.6,631.7,473.2z"/>
			<path class="st2" d="M735.2,493.9c0,11.2,1.4,15,8.7,15v0.7h-38.1v-0.7c7.3,0,8.5-4,8.7-15.2v-30.9c0-9.4,0.6-21.4-9.4-21.4
				c-5.5,0-11.6,4-14.8,10.2c-0.3,3-0.3,6.6-0.3,11.2v30.9c0,11.2,1.2,15.2,8.7,15.2v0.7h-38.2v-0.7c7.4,0,8.7-4,8.7-15.2v-36.5
				c0-11.3-1.2-15-8.7-15v-0.7h31.9v0.7c-0.8,0.4-1.7,2.9-2.1,8.1c4.3-6.3,9.5-10.2,20.4-10.2c14.8,0,24.4,7.7,24.4,25.4v28.3V493.9
				z"/>
			<path class="st2" d="M806.9,491.8c-1.7,12.1-13.4,19-29.8,19c-14.1,0-21.8-7.2-24.4-11c-3.2-4.5-2.1-10.3,1.5-11.6
				c4.4-1.4,7.7,1.8,7.4,5.5c-0.3,4-5.2,6.9-1.7,10.8c2.6,3,8.7,5.8,16.1,5.8c9,0,15.6-4.1,16-11.4c1-18.5-41.4-13.9-39.8-40.8
				c0.7-12.3,11.7-17.9,24.4-17.9c13.4,0,21.2,5.8,23.9,9.7c3,4.6,2.3,10.1-1.7,11.4c-3.6,1.4-7.7-1.4-7.4-5.4
				c0.4-4,4.7-6.8,1.4-10.5c-2.5-2.6-7.4-4.6-13.4-4.6c-7,0-11.4,3.6-11.4,10.3C768,466.5,810.6,463.9,806.9,491.8z"/>
			<path class="st2" d="M838.2,463.7c-0.6,4.6-1.1,9.4-0.7,13.9c1.2,16.5,8.8,32.5,24.4,32.7c8.1,0,18.5-4.3,23.2-8.7v1.7
				c-5.2,3.3-13,7-23,7.6c-19.7,1.1-44-8.3-45.1-33c-1.1-24.7,19-36.8,38.1-37.6c18.8-0.8,31.4,7.2,33.5,23.4H838.2z M838.2,463.3
				H869c-0.4-11.7-3.4-23.2-14.1-22.5C844.8,441.4,839.8,451.4,838.2,463.3z"/>
			<path class="st2" d="M924.2,493.9c0,11.2,1.2,15,8.7,15v0.7h-38.2v-0.7c7.4,0,8.7-4,8.7-15.2v-36.5c0-11.2-1.2-15-8.7-15v-0.7
				h31.7v0.7c-1.2,0.7-2.2,6.8-2.2,20.7v30.9V493.9z M903,419.5c0-6.3,4.8-11.3,10.8-11.3c6.1,0,10.9,5,10.9,11.3
				c0,6.2-4.8,11.3-10.9,11.3C907.8,430.8,903,425.7,903,419.5z"/>
			<path class="st2" d="M967.8,493.8c0,11.3,1.4,15.2,8.7,15.2v0.7h-38.1v-0.7c7.3,0,8.5-4,8.7-15.2v-69.9c-0.1-11.2-1.4-15-8.7-15
				v-0.7h31.7v0.7c-1.4,0.7-2.3,6.8-2.3,20.7V493.8z"/>
		</g>
	</g>
</g>
<g id="Calque_2">
</g>
<g id="Calque_3">
</g>
</svg>
