<?xml version="1.0" encoding="utf-8"?>
<!-- Generator: Adobe Illustrator 23.0.3, SVG Export Plug-In . SVG Version: 6.00 Build 0)  -->
<svg version="1.1" id="Calque_1" xmlns="http://www.w3.org/2000/svg" xmlns:xlink="http://www.w3.org/1999/xlink" x="0px" y="0px"
	 viewBox="0 0 300 300" style="enable-background:new 0 0 300 300;" xml:space="preserve">
<path  d="M33,150c0-21.2,5.2-40.8,15.7-58.7c10.5-17.9,24.6-32.1,42.6-42.6C109.2,38.2,128.8,33,150,33c21.2,0,40.8,5.2,58.7,15.7
	c17.9,10.5,32.1,24.6,42.6,42.6c10.5,17.9,15.7,37.5,15.7,58.7s-5.2,40.8-15.7,58.7c-10.5,17.9-24.6,32.1-42.6,42.6
	C190.8,261.8,171.2,267,150,267c-21.2,0-40.8-5.2-58.7-15.7c-17.9-10.5-32.1-24.6-42.6-42.6C38.2,190.8,33,171.2,33,150z M52.4,150
	c0,24.3,8.2,45.8,24.6,64.4c7.5-14.7,19.3-28.6,35.6-41.9c16.2-13.3,32.1-21.6,47.5-25c-2.3-5.5-4.6-10.4-6.8-14.7
	c-26.8,8.6-55.8,12.9-87,12.9c-6.1,0-10.6-0.1-13.6-0.2c0,0.6,0,1.4-0.1,2.3C52.5,148.6,52.4,149.4,52.4,150z M55.5,125.9
	c3.4,0.3,8.5,0.5,15.2,0.5c26.1,0,50.8-3.5,74.2-10.5C133,94.8,120,77.2,105.8,63.2c-12.3,6.2-22.9,14.9-31.7,26
	C65.3,100.2,59.1,112.5,55.5,125.9z M90.3,227c17.6,13.7,37.5,20.6,59.7,20.6c11.5,0,23-2.2,34.4-6.6c-3.1-26.7-9.2-52.5-18.3-77.5
	c-14.4,3.1-28.8,11-43.4,23.6C108.2,199.8,97.3,213.1,90.3,227z M126.1,55.7c13.7,14.2,26.4,31.9,38.1,53.1
	c21.2-8.9,37.2-20.2,48-33.9c-18.1-15-38.8-22.5-62.2-22.5C142,52.4,134.1,53.5,126.1,55.7z M172.7,125.4c2.3,5,5,11.3,8,19
	c11.5-1.1,24.1-1.6,37.7-1.6c9.7,0,19.3,0.2,28.8,0.7c-1.2-21.2-8.9-40.1-22.9-56.6C214,102,196.9,114.8,172.7,125.4z M186.5,160.8
	c8,23.1,13.3,46.8,16.1,71.1c12.3-8,22.4-18.2,30.2-30.7c7.8-12.5,12.5-26,14-40.5c-11.4-0.8-21.8-1.2-31.1-1.2
	C207.2,159.6,197.4,160,186.5,160.8z"/>
</svg>
