<?xml version="1.0" encoding="utf-8"?>
<!-- Generator: Adobe Illustrator 23.0.3, SVG Export Plug-In . SVG Version: 6.00 Build 0)  -->
<svg version="1.1" id="Calque_1" xmlns="http://www.w3.org/2000/svg" xmlns:xlink="http://www.w3.org/1999/xlink" x="0px" y="0px"
	 viewBox="0 0 300 300" style="enable-background:new 0 0 300 300;" xml:space="preserve">
<style type="text/css">
	.st0{fill:none;}
</style>
<g>
	<g>
		<path class="st0" d="M105.9,255C72.3,255,45,227.7,45,194.1v-88.2C45,72.3,72.3,45,105.9,45h88.2c33.6,0,60.9,27.3,60.9,60.9v88.2
			c0,33.6-27.3,60.9-60.9,60.9H105.9z"/>
		<path d="M194.1,57c27,0,48.9,21.9,48.9,48.9v88.2c0,27-21.9,48.9-48.9,48.9h-88.2c-27,0-48.9-21.9-48.9-48.9v-88.2
			c0-27,21.9-48.9,48.9-48.9L194.1,57 M194.1,33h-88.2C65.6,33,33,65.6,33,105.9v88.2c0,40.3,32.6,72.9,72.9,72.9h88.2
			c40.3,0,72.9-32.6,72.9-72.9v-88.2C267,65.6,234.4,33,194.1,33L194.1,33z"/>
	</g>
	<g>
		<ellipse class="st0" cx="150" cy="150" rx="41" ry="41"/>
		<path d="M150,121c16,0,29,13,29,29s-13,29-29,29s-29-13-29-29S134,121,150,121 M150,97c-29.3,0-53,23.7-53,53s23.7,53,53,53
			s53-23.7,53-53S179.3,97,150,97L150,97z"/>
	</g>
	<g>
		<circle cx="206.3" cy="92.6" r="12"/>
	</g>
</g>
</svg>
