<?xml version="1.0" encoding="utf-8"?>
<!-- Generator: Adobe Illustrator 23.0.3, SVG Export Plug-In . SVG Version: 6.00 Build 0)  -->
<svg version="1.1" id="Calque_1" xmlns="http://www.w3.org/2000/svg" xmlns:xlink="http://www.w3.org/1999/xlink" x="0px" y="0px"
	 viewBox="0 0 300 300" style="enable-background:new 0 0 300 300;" xml:space="preserve">
<style type="text/css">
	.st0{clip-path:url(#SVGID_2_);fill:url(#SVGID_3_);}
</style>
<g>
	<defs>
		<path id="SVGID_1_" d="M194.1,33h-88.2C65.6,33,33,65.6,33,105.9v88.2c0,40.3,32.6,72.9,72.9,72.9h88.2
			c40.3,0,72.9-32.6,72.9-72.9v-88.2C267,65.6,234.4,33,194.1,33z M243,194.1c0,27-21.9,48.9-48.9,48.9h-88.2
			c-27,0-48.9-21.9-48.9-48.9v-88.2c0-27,21.9-48.9,48.9-48.9h88.2c27,0,48.9,21.9,48.9,48.9V194.1z M150,97c-29.3,0-53,23.7-53,53
			s23.7,53,53,53s53-23.7,53-53S179.3,97,150,97z M150,179c-16,0-29-13-29-29s13-29,29-29s29,13,29,29S166,179,150,179z M206.3,80.6
			c-6.6,0-12,5.4-12,12c0,6.6,5.4,12,12,12c6.6,0,12-5.4,12-12C218.3,86,212.9,80.6,206.3,80.6z"/>
	</defs>
	<clipPath id="SVGID_2_">
		<use xlink:href="#SVGID_1_"  style="overflow:visible;"/>
	</clipPath>
	<linearGradient id="SVGID_3_" gradientUnits="userSpaceOnUse" x1="13.3274" y1="285.4366" x2="358.5038" y2="-54.0928">
		<stop  offset="0" style="stop-color:#630279"/>
		<stop  offset="0" style="stop-color:#FF0C75"/>
		<stop  offset="1" style="stop-color:#FD6F00"/>
	</linearGradient>
	<rect x="-11.6" y="-28.6" class="st0" width="323.3" height="359.3"/>
</g>
</svg>
