<?xml version="1.0" encoding="utf-8"?>
<!-- Generator: Adobe Illustrator 23.0.3, SVG Export Plug-In . SVG Version: 6.00 Build 0)  -->
<svg version="1.1" id="Calque_1" xmlns="http://www.w3.org/2000/svg" xmlns:xlink="http://www.w3.org/1999/xlink" x="0px" y="0px"
	 viewBox="0 0 300 300" style="enable-background:new 0 0 300 300;" xml:space="preserve">
<style type="text/css">
	.st0{clip-path:url(#SVGID_2_);fill:url(#SVGID_3_);}
</style>
<g>
	<defs>
		<path id="SVGID_1_" d="M36.8,265.1h47.6V111H36.8V265.1z M209.9,107.2c-23.1,0-38.7,12.7-45,24.7h-0.6V111h-45.7v154h47.6v-76.7
			c0-20,3.8-39.3,28.5-39.3c24.4,0,24.7,22.8,24.7,40.6v75.5H267v-85C267,138.9,258.1,107.2,209.9,107.2z M60.6,34.9
			C45.4,34.9,33,47.3,33,62.5s12.4,27.6,27.6,27.6c15.2,0,27.6-12.4,27.6-27.6S75.8,34.9,60.6,34.9z"/>
	</defs>
	<clipPath id="SVGID_2_">
		<use xlink:href="#SVGID_1_"  style="overflow:visible;"/>
	</clipPath>
	<linearGradient id="SVGID_3_" gradientUnits="userSpaceOnUse" x1="13.3274" y1="284.4366" x2="358.5038" y2="-55.0928">
		<stop  offset="0" style="stop-color:#630279"/>
		<stop  offset="1" style="stop-color:#FF0C75"/>
	</linearGradient>
	<rect x="-11.6" y="-29.6" class="st0" width="323.3" height="359.3"/>
</g>
</svg>
