<?xml version="1.0" encoding="utf-8"?>
<!-- Generator: Adobe Illustrator 23.0.3, SVG Export Plug-In . SVG Version: 6.00 Build 0)  -->
<svg version="1.1" id="Calque_1" xmlns="http://www.w3.org/2000/svg" xmlns:xlink="http://www.w3.org/1999/xlink" x="0px" y="0px"
	 viewBox="0 0 300 300" style="enable-background:new 0 0 300 300;" xml:space="preserve">
<g>
	<path d="M60.6,34.9c15.2,0,27.6,12.4,27.6,27.6c0,15.2-12.4,27.6-27.6,27.6C45.4,90.1,33,77.7,33,62.5C33,47.3,45.4,34.9,60.6,34.9
		z M36.8,111h47.6v154.1H36.8V111z"/>
	<path d="M118.6,111h45.7v20.9h0.6c6.3-12,21.9-24.7,45-24.7c48.2,0,57.1,31.7,57.1,72.9v85h-47.6v-75.5c0-17.8-0.3-40.6-24.7-40.6
		c-24.7,0-28.5,19.3-28.5,39.3v76.7h-47.6V111z"/>
</g>
</svg>
