<?xml version="1.0" encoding="utf-8"?>
<!-- Generator: Adobe Illustrator 23.0.3, SVG Export Plug-In . SVG Version: 6.00 Build 0)  -->
<svg version="1.1" id="Calque_1" xmlns="http://www.w3.org/2000/svg" xmlns:xlink="http://www.w3.org/1999/xlink" x="0px" y="0px"
	 viewBox="0 0 2369.2 2594.2" style="enable-background:new 0 0 2369.2 2594.2;" xml:space="preserve">
<style type="text/css">
	.st0{fill:#0089CA;}
	.st1{fill:#232323;}
</style>
<g>
	<g>
		<path class="st0" d="M634.1,674c0.3-0.5,0.6-1,0.9-1.5c1.7-2.7,3.4-5.5,5.1-8.2c0,0,0,0,0,0C638.1,667.5,636.1,670.7,634.1,674z"
			/>
		<path class="st0" d="M640.6,663.6c1.4-2.2,2.9-4.5,4.4-6.7C643.5,659.2,642,661.4,640.6,663.6
			C640.6,663.6,640.6,663.6,640.6,663.6z"/>
		<path class="st0" d="M645.5,656c2.1-3.1,4.2-6.3,6.3-9.4C649.7,649.8,647.6,652.9,645.5,656z"/>
		<path class="st0" d="M616.6,704.2c1.8-3.3,3.6-6.6,5.5-9.9C620.2,697.7,618.4,700.9,616.6,704.2z"/>
		<path class="st0" d="M623,692.8c1.6-2.8,3.2-5.6,4.9-8.4C626.2,687.1,624.6,689.9,623,692.8z"/>
		<path class="st0" d="M628.4,683.4c0.7-1.1,1.4-2.3,2-3.4c0.1-0.1,0.1-0.2,0.2-0.3c0.2-0.3,0.4-0.6,0.5-0.9
			c0.9-1.5,1.8-3.1,2.8-4.6C632.1,677.2,630.2,680.3,628.4,683.4z"/>
		<path class="st0" d="M658.4,637.3c0.6-0.8,1.1-1.6,1.7-2.4c1-1.4,2-2.8,3-4.1c0.9-1.3,1.9-2.6,2.8-3.8c0.9-1.2,1.8-2.4,2.7-3.6
			c1.1-1.5,2.3-3,3.4-4.5c0.8-1,1.6-2,2.3-3c0.8-1.1,1.7-2.1,2.5-3.2c-8.7,11.1-17.1,22.4-25,34
			C654.1,643.4,656.2,640.3,658.4,637.3z"/>
		<path class="st0" d="M651.9,646.5c2.1-3.1,4.3-6.2,6.5-9.3C656.2,640.3,654.1,643.4,651.9,646.5
			C651.9,646.5,651.9,646.5,651.9,646.5z"/>
		<path class="st0" d="M645.5,656L645.5,656c2.1-3.1,4.2-6.3,6.3-9.4c0,0,0,0,0,0C649.7,649.8,647.6,652.9,645.5,656z"/>
		<path class="st0" d="M1803.2,1195.9h142.4c8.7-36.2,15-73.5,18.5-111.5c2.2-24,3.4-48.3,3.4-72.9c0-141.1-37.3-273.4-102.6-387.7
			c-13-22.8-27.1-44.9-42.3-66.1c-17.2-24.1-35.6-47.1-55.3-69.1c-15.4-17.1-31.5-33.6-48.3-49.3l-51.7,143.8L1487,1084.4
			l-49.5,137.6l-10.7,29.6l-6.2,17.2l-49.5,137.6l-17.5,48.5l-61.7,171.7l-8.2,22.7l-51.7,143.7c23.2-1.4,46.1-3.8,68.6-7.1
			c15.3-2.3,30.5-5,45.6-8.2c13.8-2.9,27.5-6.2,41.1-9.8c24.1-6.4,47.7-14,70.8-22.6c1.3-0.5,2.6-1,4-1.5
			c42.1-16,82.5-35.5,120.8-58.2c114.7-67.9,210.5-164.2,277.8-279.3c25.4-43.4,46.7-89.4,63.5-137.6h-147.7h-143.6l-49.5,137.6
			H1695c-16.7,21.5-34.7,42-54.2,61.4c-32.4,32.4-67.7,60.9-105.5,85.5c-2,1.3-4.1,2.6-6.1,3.9c-26.1,16.5-53.4,31.2-81.8,43.8
			l52.6-146.2l17.5-48.5l49.5-137.6l16.8-46.8l49.5-137.6l129.5-360.1c5.9,11.8,11.4,23.8,16.5,35.9c6.9,16.4,13.2,33,18.7,49.9
			c21.2,64.6,32,132.1,32,201.3c0,24.5-1.4,48.9-4,72.9C1821.6,1122.3,1814,1159.5,1803.2,1195.9z"/>
		<path class="st0" d="M676.9,612.6c0.6-0.7,1.2-1.5,1.7-2.2c0,0,0,0,0,0C678.1,611.1,677.5,611.8,676.9,612.6z"/>
		<path class="st0" d="M651.9,646.5C651.9,646.6,651.9,646.6,651.9,646.5C651.9,646.6,651.9,646.6,651.9,646.5z"/>
		<path class="st0" d="M1097.3,1634.3l-61.7-171.7l-20.2-56.2l-49.5-137.6l-3.4-9.5l-13.4-37.3l-49.5-137.6L746.8,659.5
			c-37.8,47-68.3,100.1-89.5,157.7l96.1,267.2H543c-2.7-24.1-4-48.4-4-72.9c0-87.2,17-171.7,50.7-251.2c8.1-19.2,17.1-37.9,26.9-56
			c1.8-3.3,3.6-6.6,5.5-9.9c0.3-0.5,0.6-1.1,0.9-1.6c1.6-2.8,3.2-5.6,4.9-8.4c0.2-0.3,0.4-0.6,0.6-1c1.8-3.1,3.7-6.1,5.5-9.2
			c0-0.1,0.1-0.1,0.1-0.2c2-3.2,4-6.5,6.1-9.7c0.1-0.1,0.1-0.2,0.2-0.3c0.1-0.1,0.2-0.2,0.2-0.4c1.4-2.2,2.9-4.5,4.4-6.7
			c0,0,0,0,0,0c0.2-0.3,0.4-0.6,0.6-0.9c0,0,0,0,0,0c2.1-3.1,4.2-6.3,6.3-9.4c0,0,0.1-0.1,0.1-0.1c8-11.6,16.3-22.9,25-34
			c0.6-0.7,1.1-1.5,1.7-2.2c0,0,0,0,0,0c11.2-14.1,23.1-27.9,35.6-41.1l-51.1-142.1C624.5,461.6,589.2,500,558,541.5
			c-98.4,130.9-156.7,293.6-156.7,470c0,24.6,1.1,48.9,3.4,72.9c4.4,47.2,12.9,93.2,25.3,137.6c4.4,15.8,9.3,31.4,14.6,46.8
			c16.8,48.2,38.1,94.2,63.5,137.6h165.7c-32.8-42.3-60.1-88.3-81.6-137.6c-0.9-2-1.8-4.1-2.6-6.2c-5.7-13.4-10.9-27-15.6-40.6
			h228.7l16.8,46.8l49.5,137.6l20.2,56.2l53,147.4l20.1,55.9l38.5,107c14.3,3.4,28.7,6.5,43.3,9.1c36.1,6.5,73,10.6,110.6,12
			l-51.1-142L1097.3,1634.3z"/>
		<path class="st0" d="M644.9,656.9C644.9,656.9,644.9,656.9,644.9,656.9c0.2-0.3,0.4-0.6,0.6-0.9c0,0,0,0,0,0
			C645.3,656.3,645.1,656.6,644.9,656.9z"/>
		<path class="st0" d="M651.8,646.7C651.8,646.6,651.9,646.6,651.8,646.7c0,0,0.1-0.1,0.1-0.1c0,0,0,0,0,0
			C651.9,646.6,651.9,646.6,651.8,646.7z"/>
		<path class="st0" d="M645.5,656C645.5,656,645.5,656,645.5,656L645.5,656C645.5,656,645.5,656,645.5,656z"/>
		<path class="st0" d="M1269.9,1222l16.8,46.8l44.2,122.8l44.2-122.8l16.8-46.8l12.1-33.7l37.4-103.9l192.8-535.9l50.3-139.7
			c-36.4-30.3-75.7-57.3-117.3-80.6l-47.4,131.7L1330.9,985l-61.7-171.7L1196,610l-73.1,203.3L1061.1,985L868.2,448.6l-47.1-131
			c-41.9,22-81.6,47.7-118.7,76.7l49.6,138l198.6,552.2l37.4,103.9l12.1,33.7l16.8,46.8l44.2,122.8l44.2-122.8l16.8-46.8l12.1-33.7
			l37.4-103.9l24.4-67.8l24.4,67.8l37.4,103.9L1269.9,1222z"/>
		<path class="st0" d="M627.9,684.3c-1.7,2.8-3.3,5.6-4.9,8.4c-0.3,0.5-0.6,1.1-0.9,1.6c-1.8,3.3-3.7,6.6-5.5,9.9l0,0.1
			c4.4-8.2,9.1-16.3,13.9-24.4c-0.7,1.1-1.4,2.3-2,3.4C628.2,683.7,628,684,627.9,684.3z"/>
		<path class="st0" d="M630.5,680c0.2-0.4,0.5-0.8,0.7-1.2c-0.2,0.3-0.4,0.6-0.5,0.9C630.6,679.7,630.5,679.8,630.5,680z"/>
		<path class="st0" d="M640.2,664.3c-1.7,2.7-3.4,5.4-5.1,8.2C636.7,669.7,638.4,667,640.2,664.3z"/>
		<path class="st0" d="M634,674.2c-0.9,1.5-1.8,3.1-2.8,4.6c1.3-2.1,2.6-4.2,3.8-6.3c-0.3,0.5-0.6,1-0.9,1.5
			C634,674,634,674.1,634,674.2z"/>
		<path class="st0" d="M622,694.4c0.3-0.5,0.6-1.1,0.9-1.6C622.7,693.3,622.3,693.8,622,694.4z"/>
		<path class="st0" d="M627.9,684.3c0.2-0.3,0.4-0.6,0.6-1C628.2,683.7,628,684,627.9,684.3z"/>
		<path class="st0" d="M634,674.2c0-0.1,0.1-0.1,0.1-0.2C634,674,634,674.1,634,674.2z"/>
		<path class="st0" d="M640.2,664.3C640.2,664.3,640.2,664.3,640.2,664.3c0.1-0.2,0.3-0.4,0.4-0.6c0,0,0,0,0,0
			C640.4,663.9,640.3,664.1,640.2,664.3z"/>
		<path class="st0" d="M640.3,664c-0.1,0.1-0.1,0.2-0.2,0.3c0.1-0.2,0.3-0.4,0.4-0.6C640.5,663.8,640.4,663.9,640.3,664z"/>
		<path class="st0" d="M680.3,608.3c4.2-5.2,8.5-10.4,12.8-15.5C688.8,597.9,684.5,603.1,680.3,608.3z"/>
	</g>
	<g>
		<path class="st1" d="M469.8,2010.5l1.3,3.7l-26,67.1l-36.1,91.7h71.9l-17.3-43.3l26-67.1l83.1,214.5h-53.5l-19.7-54.7H390.4
			l-22.3,54.7H316l102.8-266.6H469.8z"/>
		<path class="st1" d="M870.1,2010.5l-61,266.6h-48.7l-49.6-172l-48.7,172h-47.2l-61.2-266.6h49.8l38.7,170.7l48.7-170.7h40.9
			l48.7,170.7l39.8-170.7H870.1z"/>
		<path class="st1" d="M1139.4,2138.7c0.1,0.9,0.2,1.7,0.4,2.5c0.1,0.8,0.2,1.6,0.2,2.5c0,12.3-1.6,24.1-4.7,35.4
			c-3.2,11.3-7.7,22-13.5,31.9c-5.8,9.9-12.8,18.9-20.8,27c-8.1,8.1-17,15-27,20.8c-9.9,5.8-20.5,10.3-31.9,13.5
			c-11.3,3.2-23.1,4.7-35.4,4.7c-12.3,0-24.1-1.6-35.4-4.7c-11.3-3.2-22-7.7-31.9-13.5c-9.9-5.8-18.9-12.8-27-20.8
			c-8.1-8.1-15-17-20.8-27c-5.8-9.9-10.3-20.5-13.5-31.9c-3.2-11.3-4.7-23.1-4.7-35.4c0-12.3,1.6-24.1,4.7-35.4
			c3.2-11.3,7.7-22,13.5-31.9c5.8-9.9,12.8-18.9,20.8-27c8.1-8.1,17-15,27-20.8c9.9-5.8,20.5-10.3,31.9-13.5
			c11.3-3.2,23.1-4.7,35.4-4.7c18.7,0,36.2,3.5,52.4,10.6c16.2,7.1,30.4,16.8,42.6,29.2l-4.6,4.1l-30.1,26.2
			c-7.9-7.6-17-13.5-27.2-17.8c-10.2-4.3-21.2-6.5-33-6.5c-12,0-23.4,2.3-34,6.9c-10.7,4.6-20,10.8-27.9,18.8
			c-7.9,7.9-14.2,17.2-18.8,27.8c-4.6,10.6-6.9,22-6.9,34.1c0,12,2.3,23.4,6.9,34c4.6,10.7,10.8,20,18.8,27.9
			c7.9,7.9,17.2,14.2,27.9,18.8c10.7,4.6,22,6.9,34,6.9c8.3,0,16.3-1.1,23.9-3.4c7.6-2.3,14.7-5.5,21.4-9.6
			c6.6-4.1,12.6-9,17.8-14.7c5.3-5.7,9.8-12,13.5-18.8h-76.6v-18v-28.1h108.9H1139.4z"/>
		<path class="st1" d="M1365.1,2010.5v49.8H1341h-48.7v216.8H1240v-216.8h-47.4h-24.2v-49.8H1365.1z"/>
		<path class="st1" d="M1547,2010.5v49.6h-110.4v59.5H1547v48.3h-110.4v59.5H1547v49.6h-160.1v-266.6H1547z"/>
		<path class="st1" d="M1718.6,2231.3c7.2,0,14.1-0.8,20.7-2.5c6.6-1.7,12.9-4.1,18.9-7.2c6-3.1,11.5-6.8,16.5-11.1
			c5.1-4.3,9.6-9.1,13.6-14.4l34.4,29.7c-6.1,7.7-12.9,14.7-20.5,21c-7.6,6.3-15.9,11.7-24.7,16.2c-8.9,4.5-18.2,7.9-28.1,10.3
			c-9.9,2.4-20.1,3.6-30.8,3.6c-12.3,0-24.1-1.6-35.4-4.7c-11.3-3.2-22-7.7-31.9-13.5c-9.9-5.8-18.9-12.8-27-20.8
			c-8.1-8.1-15-17-20.8-27c-5.8-9.9-10.3-20.5-13.5-31.9c-3.2-11.3-4.7-23.1-4.7-35.4c0-12.3,1.6-24.1,4.7-35.4
			c3.2-11.3,7.7-22,13.5-31.9c5.8-9.9,12.8-18.9,20.8-27c8.1-8.1,17-15,27-20.8c9.9-5.8,20.5-10.3,31.9-13.5
			c11.3-3.2,23.1-4.7,35.4-4.7c10.7,0,20.9,1.2,30.8,3.6c9.9,2.4,19.2,5.9,28.1,10.3c8.9,4.5,17.1,9.8,24.7,16.1
			c7.6,6.3,14.5,13.2,20.5,20.9l-34.4,29.9c-4-5.3-8.5-10.2-13.6-14.5c-5.1-4.3-10.6-8-16.5-11.1c-5.9-3-12.2-5.4-18.9-7.1
			c-6.6-1.7-13.5-2.5-20.7-2.5c-12,0-23.4,2.3-34,6.9c-10.7,4.6-20,10.8-27.9,18.8c-7.9,7.9-14.2,17.2-18.8,27.8
			c-4.6,10.6-6.9,22-6.9,34.1c0,12,2.3,23.4,6.9,34c4.6,10.7,10.8,20,18.8,27.9c7.9,7.9,17.2,14.2,27.9,18.8
			C1695.2,2229,1706.5,2231.3,1718.6,2231.3z"/>
		<path class="st1" d="M2052.8,2010.5v266.6h-50.8v-109.1h-97.6v109.1h-52.1v-266.6h52.1v109.1h97.6v-109.1H2052.8z"/>
	</g>
</g>
</svg>
