<?xml version="1.0" encoding="UTF-8" standalone="no"?>
<!-- Created with Inkscape (http://www.inkscape.org/) -->

<svg
   width="210mm"
   height="297mm"
   viewBox="0 0 210 297"
   version="1.1"
   id="svg1"
   inkscape:version="1.4 (e7c3feb100, 2024-10-09)"
   sodipodi:docname="stars.svg"
   xmlns:inkscape="http://www.inkscape.org/namespaces/inkscape"
   xmlns:sodipodi="http://sodipodi.sourceforge.net/DTD/sodipodi-0.dtd"
   xmlns="http://www.w3.org/2000/svg"
   xmlns:svg="http://www.w3.org/2000/svg">
  <sodipodi:namedview
     id="namedview1"
     pagecolor="#ffffff"
     bordercolor="#000000"
     borderopacity="0.25"
     inkscape:showpageshadow="2"
     inkscape:pageopacity="0.0"
     inkscape:pagecheckerboard="0"
     inkscape:deskcolor="#d1d1d1"
     inkscape:document-units="mm"
     inkscape:zoom="0.52025814"
     inkscape:cx="929.34634"
     inkscape:cy="590.09168"
     inkscape:window-width="1536"
     inkscape:window-height="795"
     inkscape:window-x="0"
     inkscape:window-y="0"
     inkscape:window-maximized="1"
     inkscape:current-layer="layer1" />
  <defs
     id="defs1" />
  <g
     inkscape:label="Calque 1"
     inkscape:groupmode="layer"
     id="layer1">
    <g
       id="g3"
       style="fill:#271a30;fill-opacity:1">
      <path
         id="path1"
         style="fill:#271a30;stroke-width:0.0702693;fill-opacity:1"
         d="M 24.19231,12.126837 A 4.5273101,14.582739 0 0 0 19.870069,22.460603 14.834166,4.4505759 0 0 0 9.3581401,26.709579 14.834166,4.4505759 0 0 0 19.870069,30.958561 4.5273101,14.582739 0 0 0 24.19231,41.292328 4.5273101,14.582739 0 0 0 28.514552,30.958561 14.834166,4.4505759 0 0 0 39.026487,26.709579 14.834166,4.4505759 0 0 0 28.522439,22.452843 4.5273101,14.582739 0 0 0 24.19231,12.126837 Z" />
      <path
         id="path1-2"
         style="fill:#271a30;stroke-width:0.0223314;fill-opacity:1"
         d="M 11.128554,7.1663699 A 1.4387681,4.6343587 0 0 0 9.7549559,10.450416 4.7142616,1.4143821 0 0 0 6.4142908,11.80073 4.7142616,1.4143821 0 0 0 9.7549559,13.151046 1.4387681,4.6343587 0 0 0 11.128554,16.435091 1.4387681,4.6343587 0 0 0 12.502152,13.151046 4.7142616,1.4143821 0 0 0 15.842819,11.80073 4.7142616,1.4143821 0 0 0 12.504658,10.447949 1.4387681,4.6343587 0 0 0 11.128554,7.1663699 Z" />
      <path
         id="path1-2-7"
         style="fill:#271a30;stroke-width:0.0300729;fill-opacity:1"
         d="m 44.687863,33.250593 a 1.9375388,6.2409294 0 0 0 -1.849777,4.42251 6.3485317,1.9046991 0 0 0 -4.498758,1.818421 6.3485317,1.9046991 0 0 0 4.498758,1.818424 1.9375388,6.2409294 0 0 0 1.849777,4.422509 1.9375388,6.2409294 0 0 0 1.849776,-4.422509 6.3485317,1.9046991 0 0 0 4.49876,-1.818424 6.3485317,1.9046991 0 0 0 -4.495385,-1.821743 1.9375388,6.2409294 0 0 0 -1.853151,-4.419188 z" />
    </g>
    <g
       id="g3-6"
       transform="translate(7.3483231,128.78078)"
       style="fill:#271a30;fill-opacity:1">
      <path
         id="path1-8"
         style="fill:#271a30;fill-opacity:1;stroke-width:0.0702693"
         d="M 24.19231,12.126837 A 4.5273101,14.582739 0 0 0 19.870069,22.460603 14.834166,4.4505759 0 0 0 9.3581401,26.709579 14.834166,4.4505759 0 0 0 19.870069,30.958561 4.5273101,14.582739 0 0 0 24.19231,41.292328 4.5273101,14.582739 0 0 0 28.514552,30.958561 14.834166,4.4505759 0 0 0 39.026487,26.709579 14.834166,4.4505759 0 0 0 28.522439,22.452843 4.5273101,14.582739 0 0 0 24.19231,12.126837 Z" />
      <path
         id="path1-2-84"
         style="fill:#271a30;fill-opacity:1;stroke-width:0.0223314"
         d="M 11.128554,7.1663699 A 1.4387681,4.6343587 0 0 0 9.7549559,10.450416 4.7142616,1.4143821 0 0 0 6.4142908,11.80073 4.7142616,1.4143821 0 0 0 9.7549559,13.151046 1.4387681,4.6343587 0 0 0 11.128554,16.435091 1.4387681,4.6343587 0 0 0 12.502152,13.151046 4.7142616,1.4143821 0 0 0 15.842819,11.80073 4.7142616,1.4143821 0 0 0 12.504658,10.447949 1.4387681,4.6343587 0 0 0 11.128554,7.1663699 Z" />
      <path
         id="path1-2-7-3"
         style="fill:#271a30;fill-opacity:1;stroke-width:0.0300729"
         d="m 44.687863,33.250593 a 1.9375388,6.2409294 0 0 0 -1.849777,4.42251 6.3485317,1.9046991 0 0 0 -4.498758,1.818421 6.3485317,1.9046991 0 0 0 4.498758,1.818424 1.9375388,6.2409294 0 0 0 1.849777,4.422509 1.9375388,6.2409294 0 0 0 1.849776,-4.422509 6.3485317,1.9046991 0 0 0 4.49876,-1.818424 6.3485317,1.9046991 0 0 0 -4.495385,-1.821743 1.9375388,6.2409294 0 0 0 -1.853151,-4.419188 z" />
    </g>
    <g
       id="g1"
       style="fill:#271a30;fill-opacity:1"
       transform="translate(17.799658,-1.5256849)">
      <path
         id="path1-2-2"
         style="fill:#271a30;fill-opacity:1;stroke-width:0.0223314"
         d="m 142.06945,12.14752 a 1.4387681,4.6343587 0 0 0 -1.3736,3.284046 4.7142616,1.4143821 0 0 0 -3.34067,1.350314 4.7142616,1.4143821 0 0 0 3.34067,1.350316 1.4387681,4.6343587 0 0 0 1.3736,3.284045 1.4387681,4.6343587 0 0 0 1.37359,-3.284045 4.7142616,1.4143821 0 0 0 3.34067,-1.350316 4.7142616,1.4143821 0 0 0 -3.33816,-1.352781 1.4387681,4.6343587 0 0 0 -1.3761,-3.281579 z" />
      <path
         id="path1-2-6"
         style="fill:#271a30;fill-opacity:1;stroke-width:0.051001"
         d="m 175.17734,9.675123 a 3.2858935,10.584061 0 0 0 -3.13707,7.500183 10.766545,3.2302003 0 0 0 -7.62949,3.08388 10.766545,3.2302003 0 0 0 7.62949,3.083885 3.2858935,10.584061 0 0 0 3.13707,7.500184 3.2858935,10.584061 0 0 0 3.13704,-7.500184 10.766545,3.2302003 0 0 0 7.62951,-3.083885 10.766545,3.2302003 0 0 0 -7.62377,-3.089513 3.2858935,10.584061 0 0 0 -3.14278,-7.49455 z" />
      <path
         id="path1-2-61"
         style="fill:#271a30;fill-opacity:1;stroke-width:0.0319399"
         d="m 152.96505,31.207764 a 2.057826,6.6283817 0 0 0 -1.96462,4.69707 6.7426643,2.0229475 0 0 0 -4.77805,1.931313 6.7426643,2.0229475 0 0 0 4.77805,1.931316 2.057826,6.6283817 0 0 0 1.96462,4.69707 2.057826,6.6283817 0 0 0 1.96461,-4.69707 6.7426643,2.0229475 0 0 0 4.77806,-1.931316 6.7426643,2.0229475 0 0 0 -4.77447,-1.934841 2.057826,6.6283817 0 0 0 -1.9682,-4.693542 z" />
    </g>
    <path
       id="path1-2-75-0"
       style="fill:#271a30;stroke-width:0.0223314;fill-opacity:1"
       d="m 168.90217,82.452151 a 1.4387681,4.6343587 0 0 0 -1.37359,3.284046 4.7142616,1.4143821 0 0 0 -3.34067,1.350314 4.7142616,1.4143821 0 0 0 3.34067,1.350316 1.4387681,4.6343587 0 0 0 1.37359,3.284045 1.4387681,4.6343587 0 0 0 1.3736,-3.284045 4.7142616,1.4143821 0 0 0 3.34067,-1.350316 4.7142616,1.4143821 0 0 0 -3.33816,-1.352781 1.4387681,4.6343587 0 0 0 -1.37611,-3.281579 z" />
    <g
       id="g4"
       style="fill:#271a30;fill-opacity:1">
      <path
         id="path1-2-75"
         style="fill:#271a30;stroke-width:0.0223314;fill-opacity:1"
         d="m 119.44768,77.362549 a 1.4387681,4.6343587 0 0 0 -1.37359,3.284046 4.7142616,1.4143821 0 0 0 -3.34067,1.350314 4.7142616,1.4143821 0 0 0 3.34067,1.350316 1.4387681,4.6343587 0 0 0 1.37359,3.284045 1.4387681,4.6343587 0 0 0 1.3736,-3.284045 4.7142616,1.4143821 0 0 0 3.34067,-1.350316 4.7142616,1.4143821 0 0 0 -3.33816,-1.352781 1.4387681,4.6343587 0 0 0 -1.37611,-3.281579 z" />
      <path
         id="path1-2-8"
         style="fill:#271a30;stroke-width:0.0392264;fill-opacity:1"
         d="m 102.49152,63.202912 a 2.5272826,8.1405294 0 0 0 -2.41279,5.768624 8.2808836,2.4844471 0 0 0 -5.868089,2.371908 8.2808836,2.4844471 0 0 0 5.868089,2.371911 2.5272826,8.1405294 0 0 0 2.41279,5.768622 2.5272826,8.1405294 0 0 0 2.41281,-5.768622 8.2808836,2.4844471 0 0 0 5.86809,-2.371911 8.2808836,2.4844471 0 0 0 -5.86368,-2.376241 2.5272826,8.1405294 0 0 0 -2.41722,-5.764291 z" />
      <path
         id="path1-2-61-6"
         style="fill:#271a30;stroke-width:0.0319399;fill-opacity:1"
         d="m 96.171837,81.756248 a 2.057826,6.6283817 0 0 0 -1.96462,4.69707 6.7426643,2.0229475 0 0 0 -4.77805,1.931313 6.7426643,2.0229475 0 0 0 4.77805,1.931316 2.057826,6.6283817 0 0 0 1.96462,4.69707 2.057826,6.6283817 0 0 0 1.96461,-4.69707 6.7426643,2.0229475 0 0 0 4.778063,-1.931316 6.7426643,2.0229475 0 0 0 -4.774473,-1.934841 2.057826,6.6283817 0 0 0 -1.9682,-4.693542 z" />
    </g>
    <path
       id="path1-3"
       style="fill:#271a30;stroke-width:0.0702693;fill-opacity:1"
       d="m 188.66542,82.55 a 4.5273101,14.582739 0 0 0 -4.32224,10.333766 14.834166,4.4505759 0 0 0 -10.51193,4.248976 14.834166,4.4505759 0 0 0 10.51193,4.248978 4.5273101,14.582739 0 0 0 4.32224,10.33377 4.5273101,14.582739 0 0 0 4.32224,-10.33377 A 14.834166,4.4505759 0 0 0 203.4996,97.132742 14.834166,4.4505759 0 0 0 192.99555,92.876006 4.5273101,14.582739 0 0 0 188.66542,82.55 Z" />
    <path
       id="path1-2-6-7"
       style="fill:#271a30;stroke-width:0.051001;fill-opacity:1"
       d="m 176.92489,107.42083 a 3.2858935,10.584061 0 0 0 -3.13707,7.50019 10.766545,3.2302003 0 0 0 -7.62949,3.08388 10.766545,3.2302003 0 0 0 7.62949,3.08388 3.2858935,10.584061 0 0 0 3.13707,7.50018 3.2858935,10.584061 0 0 0 3.13704,-7.50018 10.766545,3.2302003 0 0 0 7.62951,-3.08388 10.766545,3.2302003 0 0 0 -7.62377,-3.08952 3.2858935,10.584061 0 0 0 -3.14278,-7.49455 z" />
    <g
       id="g2"
       transform="translate(20.160803,152.37816)"
       style="fill:#271a30;fill-opacity:1">
      <path
         id="path1-2-2-6"
         style="fill:#271a30;fill-opacity:1;stroke-width:0.0223314"
         d="m 142.06945,12.14752 a 1.4387681,4.6343587 0 0 0 -1.3736,3.284046 4.7142616,1.4143821 0 0 0 -3.34067,1.350314 4.7142616,1.4143821 0 0 0 3.34067,1.350316 1.4387681,4.6343587 0 0 0 1.3736,3.284045 1.4387681,4.6343587 0 0 0 1.37359,-3.284045 4.7142616,1.4143821 0 0 0 3.34067,-1.350316 4.7142616,1.4143821 0 0 0 -3.33816,-1.352781 1.4387681,4.6343587 0 0 0 -1.3761,-3.281579 z" />
      <path
         id="path1-2-6-3"
         style="fill:#271a30;fill-opacity:1;stroke-width:0.051001"
         d="m 175.17734,9.675123 a 3.2858935,10.584061 0 0 0 -3.13707,7.500183 10.766545,3.2302003 0 0 0 -7.62949,3.08388 10.766545,3.2302003 0 0 0 7.62949,3.083885 3.2858935,10.584061 0 0 0 3.13707,7.500184 3.2858935,10.584061 0 0 0 3.13704,-7.500184 10.766545,3.2302003 0 0 0 7.62951,-3.083885 10.766545,3.2302003 0 0 0 -7.62377,-3.089513 3.2858935,10.584061 0 0 0 -3.14278,-7.49455 z" />
      <path
         id="path1-2-61-2"
         style="fill:#271a30;fill-opacity:1;stroke-width:0.0319399"
         d="m 152.96505,31.207764 a 2.057826,6.6283817 0 0 0 -1.96462,4.69707 6.7426643,2.0229475 0 0 0 -4.77805,1.931313 6.7426643,2.0229475 0 0 0 4.77805,1.931316 2.057826,6.6283817 0 0 0 1.96462,4.69707 2.057826,6.6283817 0 0 0 1.96461,-4.69707 6.7426643,2.0229475 0 0 0 4.77806,-1.931316 6.7426643,2.0229475 0 0 0 -4.77447,-1.934841 2.057826,6.6283817 0 0 0 -1.9682,-4.693542 z" />
    </g>
    <path
       id="path1-2-75-5"
       style="fill:#271a30;stroke-width:0.0223314;fill-opacity:1"
       d="m 36.993427,77.258332 a 1.4387681,4.6343587 0 0 0 -1.37359,3.284046 4.7142616,1.4143821 0 0 0 -3.34067,1.350314 4.7142616,1.4143821 0 0 0 3.34067,1.350316 1.4387681,4.6343587 0 0 0 1.37359,3.284045 1.4387681,4.6343587 0 0 0 1.3736,-3.284045 4.7142616,1.4143821 0 0 0 3.34067,-1.350316 4.7142616,1.4143821 0 0 0 -3.33816,-1.352781 1.4387681,4.6343587 0 0 0 -1.37611,-3.281579 z" />
    <path
       id="path1-2-75-6"
       style="fill:#271a30;stroke-width:0.0223314;fill-opacity:1"
       d="m 92.810208,1.7181497 a 1.4387681,4.6343587 0 0 0 -1.37359,3.284046 4.7142616,1.4143821 0 0 0 -3.34067,1.350314 4.7142616,1.4143821 0 0 0 3.34067,1.350316 1.4387681,4.6343587 0 0 0 1.37359,3.2840453 1.4387681,4.6343587 0 0 0 1.3736,-3.2840453 4.7142616,1.4143821 0 0 0 3.34067,-1.350316 4.7142616,1.4143821 0 0 0 -3.33816,-1.352781 1.4387681,4.6343587 0 0 0 -1.37611,-3.281579 z" />
    <path
       id="path1-2-75-52"
       style="fill:#271a30;fill-opacity:1;stroke-width:0.0223314"
       d="m 116.79785,134.48747 a 1.4387681,4.6343587 0 0 0 -1.37359,3.28404 4.7142616,1.4143821 0 0 0 -3.34067,1.35032 4.7142616,1.4143821 0 0 0 3.34067,1.35031 1.4387681,4.6343587 0 0 0 1.37359,3.28405 1.4387681,4.6343587 0 0 0 1.3736,-3.28405 4.7142616,1.4143821 0 0 0 3.34067,-1.35031 4.7142616,1.4143821 0 0 0 -3.33816,-1.35278 1.4387681,4.6343587 0 0 0 -1.37611,-3.28158 z" />
    <path
       id="path1-2-75-52-6"
       style="fill:#271a30;fill-opacity:1;stroke-width:0.0223314"
       d="m 194.76751,242.02446 a 1.4387681,4.6343587 0 0 0 -1.37359,3.28404 4.7142616,1.4143821 0 0 0 -3.34067,1.35032 4.7142616,1.4143821 0 0 0 3.34067,1.35031 1.4387681,4.6343587 0 0 0 1.37359,3.28405 1.4387681,4.6343587 0 0 0 1.3736,-3.28405 4.7142616,1.4143821 0 0 0 3.34067,-1.35031 4.7142616,1.4143821 0 0 0 -3.33816,-1.35278 1.4387681,4.6343587 0 0 0 -1.37611,-3.28158 z" />
    <g
       id="g4-5"
       transform="translate(-85.898231,143.18284)"
       style="fill:#271a30;fill-opacity:1">
      <path
         id="path1-2-75-04"
         style="fill:#271a30;fill-opacity:1;stroke-width:0.0223314"
         d="m 119.44768,77.362549 a 1.4387681,4.6343587 0 0 0 -1.37359,3.284046 4.7142616,1.4143821 0 0 0 -3.34067,1.350314 4.7142616,1.4143821 0 0 0 3.34067,1.350316 1.4387681,4.6343587 0 0 0 1.37359,3.284045 1.4387681,4.6343587 0 0 0 1.3736,-3.284045 4.7142616,1.4143821 0 0 0 3.34067,-1.350316 4.7142616,1.4143821 0 0 0 -3.33816,-1.352781 1.4387681,4.6343587 0 0 0 -1.37611,-3.281579 z" />
      <path
         id="path1-2-8-8"
         style="fill:#271a30;fill-opacity:1;stroke-width:0.0392264"
         d="m 102.49152,63.202912 a 2.5272826,8.1405294 0 0 0 -2.41279,5.768624 8.2808836,2.4844471 0 0 0 -5.868089,2.371908 8.2808836,2.4844471 0 0 0 5.868089,2.371911 2.5272826,8.1405294 0 0 0 2.41279,5.768622 2.5272826,8.1405294 0 0 0 2.41281,-5.768622 8.2808836,2.4844471 0 0 0 5.86809,-2.371911 8.2808836,2.4844471 0 0 0 -5.86368,-2.376241 2.5272826,8.1405294 0 0 0 -2.41722,-5.764291 z" />
      <path
         id="path1-2-61-6-7"
         style="fill:#271a30;fill-opacity:1;stroke-width:0.0319399"
         d="m 96.171837,81.756248 a 2.057826,6.6283817 0 0 0 -1.96462,4.69707 6.7426643,2.0229475 0 0 0 -4.77805,1.931313 6.7426643,2.0229475 0 0 0 4.77805,1.931316 2.057826,6.6283817 0 0 0 1.96462,4.69707 2.057826,6.6283817 0 0 0 1.96461,-4.69707 6.7426643,2.0229475 0 0 0 4.778063,-1.931316 6.7426643,2.0229475 0 0 0 -4.774473,-1.934841 2.057826,6.6283817 0 0 0 -1.9682,-4.693542 z" />
    </g>
    <path
       id="path1-3-2"
       style="fill:#271a30;fill-opacity:1;stroke-width:0.0702693"
       d="m 145.02321,236.25232 a 4.5273101,14.582739 0 0 0 -4.32224,10.33377 14.834166,4.4505759 0 0 0 -10.51193,4.24897 14.834166,4.4505759 0 0 0 10.51193,4.24898 4.5273101,14.582739 0 0 0 4.32224,10.33377 4.5273101,14.582739 0 0 0 4.32224,-10.33377 14.834166,4.4505759 0 0 0 10.51194,-4.24898 14.834166,4.4505759 0 0 0 -10.50405,-4.25673 4.5273101,14.582739 0 0 0 -4.33013,-10.32601 z" />
    <path
       id="path1-3-6"
       style="fill:#271a30;fill-opacity:1;stroke-width:0.0286093"
       d="m 93.931629,253.66421 a 1.8432423,5.9371946 0 0 0 -1.75975,4.20727 6.0395602,1.8120008 0 0 0 -4.27981,1.72992 6.0395602,1.8120008 0 0 0 4.27981,1.72992 1.8432423,5.9371946 0 0 0 1.75975,4.20728 1.8432423,5.9371946 0 0 0 1.75975,-4.20728 6.0395602,1.8120008 0 0 0 4.27982,-1.72992 6.0395602,1.8120008 0 0 0 -4.2766,-1.73308 1.8432423,5.9371946 0 0 0 -1.76297,-4.20411 z" />
    <path
       id="path1-3-6-9"
       style="fill:#271a30;fill-opacity:1;stroke-width:0.0286093"
       d="m 147.13833,213.30897 a 1.8432423,5.9371946 0 0 0 -1.75975,4.20727 6.0395602,1.8120008 0 0 0 -4.27981,1.72992 6.0395602,1.8120008 0 0 0 4.27981,1.72992 1.8432423,5.9371946 0 0 0 1.75975,4.20728 1.8432423,5.9371946 0 0 0 1.75975,-4.20728 6.0395602,1.8120008 0 0 0 4.27982,-1.72992 6.0395602,1.8120008 0 0 0 -4.2766,-1.73308 1.8432423,5.9371946 0 0 0 -1.76297,-4.20411 z" />
    <path
       id="path1-3-6-7"
       style="fill:#271a30;fill-opacity:1;stroke-width:0.0286093"
       d="m 172.10891,268.20508 a 1.8432423,5.9371946 0 0 0 -1.75975,4.20727 6.0395602,1.8120008 0 0 0 -4.27981,1.72992 6.0395602,1.8120008 0 0 0 4.27981,1.72992 1.8432423,5.9371946 0 0 0 1.75975,4.20728 1.8432423,5.9371946 0 0 0 1.75975,-4.20728 6.0395602,1.8120008 0 0 0 4.27982,-1.72992 6.0395602,1.8120008 0 0 0 -4.2766,-1.73308 1.8432423,5.9371946 0 0 0 -1.76297,-4.20411 z" />
    <path
       id="path1-2-6-7-7"
       style="fill:#271a30;fill-opacity:1;stroke-width:0.051001"
       d="m 18.758401,270.99187 a 3.2858935,10.584061 0 0 0 -3.13707,7.50019 10.766545,3.2302003 0 0 0 -7.6294899,3.08388 10.766545,3.2302003 0 0 0 7.6294899,3.08388 3.2858935,10.584061 0 0 0 3.13707,7.50018 3.2858935,10.584061 0 0 0 3.13704,-7.50018 10.766545,3.2302003 0 0 0 7.62951,-3.08388 10.766545,3.2302003 0 0 0 -7.62377,-3.08952 3.2858935,10.584061 0 0 0 -3.14278,-7.49455 z" />
  </g>
</svg>
