<?xml version="1.0" encoding="utf-8"?>
<!-- Generator: Adobe Illustrator 23.0.3, SVG Export Plug-In . SVG Version: 6.00 Build 0)  -->
<svg version="1.1" id="Calque_1" xmlns="http://www.w3.org/2000/svg" xmlns:xlink="http://www.w3.org/1999/xlink" x="0px" y="0px"
	 viewBox="0 0 491.9 684.6" style="enable-background:new 0 0 491.9 684.6;" xml:space="preserve">
<style type="text/css">
	.st0{fill:#FFFFFF;}
	.st1{fill:#FFFFFF;stroke:#1E3231;stroke-width:5;stroke-miterlimit:10;}
	.st2{fill:none;stroke:#1E3231;stroke-width:5;stroke-linecap:round;stroke-linejoin:round;stroke-miterlimit:10;}
	.st3{fill:#FFEED2;stroke:#1E3231;stroke-width:5;stroke-linecap:round;stroke-linejoin:round;stroke-miterlimit:10;}
	.st4{fill:#FFFFFF;stroke:#1E3231;stroke-width:5;stroke-linecap:round;stroke-linejoin:round;stroke-miterlimit:10;}
	.st5{display:none;fill:none;stroke:#1E3231;stroke-width:5;stroke-linecap:round;stroke-linejoin:round;stroke-miterlimit:10;}
	.st6{fill:#016176;stroke:#1E3231;stroke-width:5;stroke-linecap:round;stroke-linejoin:round;stroke-miterlimit:10;}
	.st7{fill:#E9B44C;stroke:#1E3231;stroke-width:5;stroke-linecap:round;stroke-linejoin:round;stroke-miterlimit:10;}
	.st8{fill:#1E3231;}
	.st9{fill:#E9B44C;}
	.st10{fill:none;stroke:#FFFFFF;stroke-width:5;stroke-linecap:round;stroke-linejoin:round;stroke-miterlimit:10;}
</style>
<path class="st0" d="M245.8,10c61.3,0,113.1,13.3,149.8,38.5c43.5,29.8,65.6,74.2,65.6,131.8v205c0,57.7-22.1,102-65.6,131.8
	c-36.7,25.2-88.5,38.5-149.8,38.5c-61.3,0-113.1-13.3-149.8-38.5c-43.5-29.8-65.6-74.2-65.6-131.8v-205c0-57.7,22.1-102,65.6-131.8
	C132.7,23.3,184.5,10,245.8,10 M245.8,0C182.5,0,128.7,13.9,90.3,40.2C67.2,56,49.6,76,37.9,99.5c-11.6,23.4-17.5,50.5-17.5,80.8
	v205c0,30.3,5.9,57.4,17.5,80.8c11.7,23.5,29.3,43.4,52.4,59.3c38.4,26.3,92.2,40.2,155.5,40.2c63.3,0,117.1-13.9,155.5-40.2
	c23.1-15.8,40.7-35.7,52.4-59.3c11.6-23.4,17.5-50.5,17.5-80.8v-205c0-30.3-5.9-57.4-17.5-80.8C442,76,424.3,56,401.3,40.2
	C362.9,13.9,309.1,0,245.8,0L245.8,0z"/>
<path class="st1" d="M245.8,555.5c-61.3,0-113.1-13.3-149.8-38.5c-43.5-29.8-65.6-74.2-65.6-131.8v-205c0-57.7,22.1-102,65.6-131.8
	C132.7,23.3,184.5,10,245.8,10c61.3,0,113.1,13.3,149.8,38.5c43.5,29.8,65.6,74.2,65.6,131.8v205c0,57.7-22.1,102-65.6,131.8
	C358.9,542.2,307.1,555.5,245.8,555.5z"/>
<path class="st2" d="M211.3,489.8c-12.6,8.3-26.7,15.3-39.2,20.8c-11.7,5.1-22,9-28.5,11.2c-12.1-4.5-23.7-10.1-34.5-17.1
	c-3.1-2-6.2-4.2-9.2-6.5c-4.8-3.6-9.3-7.6-13.5-11.8C77,477,68.9,466.1,62.9,454c-1.3-2.6-2.6-5.3-3.7-8c-0.4-0.9-0.8-1.9-1.1-2.8
	c0-0.1-0.1-0.1-0.1-0.2c-0.4-0.9-0.7-1.8-1-2.8c-0.1-0.3-0.2-0.6-0.4-1c-0.1-0.3-0.2-0.6-0.3-1c-0.2-0.5-0.3-1-0.5-1.5
	c-0.4-1.1-0.7-2.2-1-3.2c-0.2-0.5-0.3-1-0.4-1.5c-0.2-0.5-0.3-1.1-0.5-1.7c-0.7-2.4-1.3-4.7-1.8-7.1c-0.1-0.5-0.2-1-0.3-1.4
	c-0.4-1.9-0.8-3.8-1.1-5.7c-0.1-0.8-0.3-1.6-0.4-2.4c-0.1-0.8-0.3-1.6-0.4-2.4c-0.8-5.1-1.3-10.2-1.5-15.3
	c-0.3-5.4-0.3-10.8-0.3-16.3c0-3.2,0-6.5,0-9.7v-62.5c0-0.5-0.1-0.4,0.3-0.6c0.6-0.5,1.7-0.7,2.4-1c3.9-1.5,7.9-3,11.8-4.3
	c2.1-0.7,4.3-1.5,6.4-2.2c10.1-3.3,20.2-6.3,30.5-8.9c32.7,23.3,71.2,39.1,112.9,44.6c-7.6,6.8-12.9,14.7-13.8,23.8
	c-0.8,8.2,2,17.3,10,27.4c4.1,5.3,9.7,10.8,16.8,16.6c4.7,3.8,8.6,7.6,11.8,11.3c7.6,8.9,11,17.6,11.3,25.8
	c0.3,9.1-3.3,17.6-9.4,25.6C232.1,474.4,222.2,482.6,211.3,489.8z"/>
<path class="st2" d="M245.8,285.9c-22.8,0-44.6-3.8-65-10.8c0.7-0.1,1.3-0.2,2-0.2c24.9-2.8,50-4.2,75.1-3.9
	c18.5,0.2,37,1.3,55.4,3.3C292.2,281.9,269.5,285.9,245.8,285.9z"/>
<path class="st2" d="M443.7,304.8v80.3c0,8.7-0.6,17.5-1.9,26.2c-1.7,11.9-4.8,23.5-9.4,34.6c-0.6,1.5-1.2,2.9-1.9,4.3
	c-6.3,13.6-15,25.9-25.5,36.4c-6.6,6.6-13.9,12.5-21.8,17.7c-20.9,13.7-44.8,22.2-69.2,27.2c-24.5,5.1-49.6,6.9-74.6,6.5
	c-10.8-0.2-21.7-0.8-32.5-1.9c7.5-4.5,18-11.1,29-19.3c10.3-7.6,21-16.5,30.1-26c8.2-8.6,15.1-17.8,19.2-27.2
	c3.8-8.7,5.2-17.5,2.9-26.1c-1.3-4.8-3.7-9.6-7.5-14.2c-2.9-3.5-5.8-6.8-8.8-10c-8.7-9.3-17.6-17.3-25.3-24.6
	c-10.3-9.8-18.3-18.3-20.2-26.3c-1.9-8.3,2.6-16.2,17.6-25h0c0.6,0,1.1,0,1.7,0c55.4,0,106.6-17.8,148.2-48c4.8,1.3,9.6,2.6,14.3,4
	c5.4,1.6,10.7,3.2,16,4.9C430.8,300.2,437.3,302.5,443.7,304.8z"/>
<path class="st3" d="M443.7,304.8c0,6.7,0,13.4,0,20.1c0,12.6,0,25.3,0,37.9c0,7.4,0,14.9,0,22.3c0,22.3-3.7,44.7-13.1,65.1
	c-10.2,22.2-26.9,40.7-47.3,54.1c-20.9,13.7-44.8,22.2-69.2,27.2c-24.5,5.1-49.6,6.9-74.6,6.5c-25.3-0.4-50.7-3.1-75.1-9.6
	c-23-6.1-45.4-15.6-64.4-30.1c-15.5-11.8-28.4-26.9-37.1-44.4c-9-18-13.5-38-14.6-58c-0.5-8.6-0.3-17.3-0.3-25.9c0-12.5,0-25,0-37.5
	c0-8.3,0-16.7,0-25c0-0.5-0.1-0.4,0.3-0.6c0.6-0.5,1.7-0.7,2.4-1c3.9-1.5,7.9-3,11.8-4.4c16.1-5.6,32.6-10.2,49.2-14.2
	c23.4-5.6,47.2-9.7,71.1-12.4c24.9-2.8,50-4.2,75.1-3.9c25.3,0.3,50.5,2.2,75.5,5.8c25.3,3.7,50.4,9.1,75,16.3
	C420.3,296.7,432.1,300.5,443.7,304.8z"/>
<path class="st4" d="M288.2,437.4c2.3,8.6,0.9,17.4-2.9,26.1c-4.1,9.3-11,18.5-19.2,27.2c-9.1,9.6-19.8,18.5-30.1,26
	c-11,8.2-21.5,14.8-29,19.3c-14.4-1.5-28.7-4-42.7-7.7c-7-1.8-13.9-4-20.7-6.5c6.5-2.3,16.8-6.1,28.5-11.2
	c12.5-5.5,26.6-12.5,39.2-20.8c11-7.2,20.8-15.4,27.6-24.3c6.1-8,9.7-16.5,9.4-25.6c-0.2-8.2-3.6-16.8-11.3-25.8
	c-3.2-3.7-7.1-7.5-11.8-11.3c-7.1-5.8-12.7-11.3-16.8-16.6c-8-10.1-10.8-19.2-10-27.4c0.9-9.1,6.2-17.1,13.8-23.8
	c-41.7-5.5-80.2-21.3-112.9-44.6c4.1-1.1,8.2-2.1,12.3-3.1c7.6-1.8,15.2-3.5,22.9-4.9c15.3-3,30.8-5.4,46.3-7.2
	c20.4,7,42.3,10.8,65,10.8c23.6,0,46.3-4.1,67.4-11.6c6.7,0.7,13.4,1.6,20.1,2.5c8.7,1.3,17.3,2.7,25.9,4.4
	c11.7,2.3,23.3,4.9,34.8,7.9c-41.6,30.2-92.8,48-148.2,48c-0.6,0-1.1,0-1.7,0h0c-15.1,8.8-19.6,16.7-17.6,25
	c1.9,8.1,9.9,16.5,20.2,26.3c7.7,7.3,16.6,15.4,25.3,24.6c3,3.2,5.9,6.5,8.8,10C284.5,427.8,286.9,432.6,288.2,437.4z"/>
<path class="st3" d="M154.7,264.8c0,11.1-9,20.2-20.2,20.2c-7,0-13.1-3.6-16.8-8.9c-2.9,2.8-6.9,4.5-11.3,4.5
	c-4.1,0-7.9-1.5-10.8-4.1c-1.9,1.8-4.1,3.3-6.6,4.4c-2.5,1-5.2,1.6-8.1,1.6c-4.7,0-9.1-1.6-12.6-4.2c-5,6-12.2,10-20.4,10.7V180.3
	c0-32.4,7.8-59,21.6-80.4c3.6,2.8,6.6,6.5,8.6,10.6c12.7,3.8,22.3,14.9,23.7,28.5c4.5,4.1,7.5,9.7,8.3,16c2.4-0.6,5-1,7.6-1
	c16.4,0,29.8,13.3,29.8,29.8c0,14.7-10.7,27-21.7,29.4v35.2c0.3-2.4,4.3-3.8,8.7-3.8C145.6,244.6,154.7,253.6,154.7,264.8z"/>
<path class="st3" d="M443.7,180.3v100.9c-1.8-1-3.4-2.4-4.8-3.9c-1.7,0.5-3.4,0.7-5.3,0.7c-2.9,0-5.7-0.6-8.1-1.7
	c-3.8,3.8-9,6.1-14.8,6.1c-8,0-14.9-4.4-18.4-11c-3.7,4-9,6.6-14.9,6.6c-11.1,0-20.2-9-20.2-20.2c0-7.6,4.2-14.3,8.5-17.7v-37.4
	c-8.8-4.5-16.4-15.1-16.4-27.5c0-13.8,9.4-25.5,22.3-28.8c3.1-11.9,13.4-20.8,25.9-22.1c1.1-7.2,4.4-13.7,9.1-18.9
	c-0.3-1.7-0.5-3.4-0.5-5.2c0-5.7,1.7-11,4.7-15.4C431.6,108.4,443.7,139.8,443.7,180.3z"/>
<line class="st2" x1="81" y1="198.3" x2="81" y2="295"/>
<line class="st2" x1="66" y1="214.1" x2="81" y2="229.1"/>
<line class="st2" x1="96" y1="234.9" x2="81" y2="249.9"/>
<line class="st2" x1="410.7" y1="174" x2="410.7" y2="293.9"/>
<line class="st2" x1="395.7" y1="190.8" x2="410.7" y2="205.9"/>
<line class="st2" x1="425.7" y1="190.8" x2="410.7" y2="205.9"/>
<line class="st2" x1="395.7" y1="227.4" x2="410.7" y2="242.4"/>
<line class="st2" x1="425.7" y1="227.4" x2="410.7" y2="242.4"/>
<path class="st5" d="M245.8,14.5c-41.7,0-78.5,6.1-109.4,18C102,45.8,75.9,66.1,58.6,92.8C42.9,117.2,35,146.6,35,180.3v205
	c0,28.5,5.7,54,17,75.9c10.7,20.7,26.4,38.3,46.6,52.2c18.7,12.8,41.3,22.5,67.2,28.8c24.1,5.9,51.1,8.9,80.1,8.9
	c29.1,0,56-3,80.1-8.9c25.9-6.3,48.5-16,67.2-28.8c20.3-13.9,35.9-31.4,46.6-52.2c11.3-21.9,17-47.4,17-75.9v-205
	c0-41.9-12.2-76.9-36.3-104.1c-18.6-21-44-37-75.6-47.4C316.2,19.3,282.9,14.5,245.8,14.5L245.8,14.5z"/>
<path class="st3" d="M238.9,465.5c-6.8,8.9-16.6,17.1-27.6,24.3c-12.6,8.3-26.7,15.3-39.2,20.8c-29.7-5.1-58.3-13.2-85.6-24
	C77,477,68.9,466.1,62.9,454c-1.3-2.6-2.6-5.3-3.7-8c-0.4-0.9-0.8-1.9-1.1-2.8c0-0.1-0.1-0.1-0.1-0.2c-0.4-0.9-0.7-1.8-1-2.8
	c-0.1-0.3-0.2-0.6-0.4-1c-0.1-0.3-0.2-0.6-0.3-1c-0.2-0.5-0.3-1-0.5-1.5c-0.4-1.1-0.7-2.2-1-3.2c-0.2-0.5-0.3-1-0.4-1.5
	c-0.2-0.5-0.3-1.1-0.5-1.7c-0.7-2.4-1.3-4.7-1.8-7.1c-0.1-0.5-0.2-1-0.3-1.4c-0.4-1.9-0.8-3.8-1.1-5.7c-0.1-0.8-0.3-1.6-0.4-2.4
	c-0.1-0.8-0.3-1.6-0.4-2.4c-0.8-5.1-1.3-10.2-1.5-15.3c-0.3-5.4-0.3-10.8-0.3-16.3c0-3.2,0-6.5,0-9.7v-62.5c0-0.5-0.1-0.4,0.3-0.6
	c0.6-0.5,1.7-0.7,2.4-1c3.9-1.5,7.9-3,11.8-4.3c2.1-0.7,4.3-1.5,6.4-2.2c10.1-3.3,20.2-6.3,30.5-8.9c32.7,23.3,71.2,39.1,112.9,44.6
	c-7.6,6.8-12.9,14.7-13.8,23.8c-0.8,8.2,2,17.3,10,27.4c4.1,5.3,9.7,10.8,16.8,16.6c4.7,3.8,8.6,7.6,11.8,11.3
	c7.6,8.9,11,17.6,11.3,25.8C248.5,449,244.9,457.5,238.9,465.5z"/>
<path class="st2" d="M245.8,285.9c-22.8,0-44.6-3.8-65-10.8c0.7-0.1,1.3-0.2,2-0.2c24.9-2.8,50-4.2,75.1-3.9
	c18.5,0.2,37,1.3,55.4,3.3C292.2,281.9,269.5,285.9,245.8,285.9z"/>
<path class="st3" d="M443.7,304.8v80.3c0,8.7-0.6,17.5-1.9,26.2c-1.7,11.9-4.8,23.5-9.4,34.6c-0.6,1.5-1.2,2.9-1.9,4.3
	c-6.3,13.6-15,25.9-25.5,36.4c-49.3,19.6-103,30.3-159.2,30.3c-3.3,0-6.6,0-9.8-0.1c10.3-7.6,21-16.5,30.1-26
	c8.2-8.6,15.1-17.8,19.2-27.2c3.8-8.7,5.2-17.5,2.9-26.1c-1.3-4.8-3.7-9.6-7.5-14.2c-2.9-3.5-5.8-6.8-8.8-10
	c-8.7-9.3-17.6-17.3-25.3-24.6c-10.3-9.8-18.3-18.3-20.2-26.3c-1.9-8.3,2.6-16.2,17.6-25h0c0.6,0,1.1,0,1.7,0
	c55.4,0,106.6-17.8,148.2-48c4.8,1.3,9.6,2.6,14.3,4c5.4,1.6,10.7,3.2,16,4.9C430.8,300.2,437.3,302.5,443.7,304.8z"/>
<path class="st3" d="M248.3,439.9c0.3,9.1-3.3,17.6-9.4,25.6c-6.8,8.9-16.6,17.1-27.6,24.3c-54.5-4.6-105.9-19.9-152.1-43.8
	c-0.4-0.9-0.8-1.9-1.1-2.8c0-0.1-0.1-0.1-0.1-0.2c-0.4-0.9-0.7-1.8-1-2.8c-0.1-0.3-0.2-0.6-0.4-1c-0.1-0.3-0.2-0.6-0.3-1
	c-0.2-0.5-0.3-1-0.5-1.5c-0.4-1.1-0.7-2.2-1-3.2c-0.2-0.5-0.3-1-0.4-1.5c-0.2-0.5-0.3-1.1-0.5-1.7c-0.7-2.4-1.3-4.7-1.8-7.1
	c-0.1-0.5-0.2-1-0.3-1.4c-0.4-1.9-0.8-3.8-1.1-5.7c-0.1-0.8-0.3-1.6-0.4-2.4c-0.1-0.8-0.3-1.6-0.4-2.4c-0.8-5.1-1.3-10.2-1.5-15.3
	c-0.3-5.4-0.3-10.8-0.3-16.3c0-3.2,0-6.5,0-9.7v-62.5c0-0.5-0.1-0.4,0.3-0.6c0.6-0.5,1.7-0.7,2.4-1c3.9-1.5,7.9-3,11.8-4.3
	c2.1-0.7,4.3-1.5,6.4-2.2c10.1-3.3,20.2-6.3,30.5-8.9c32.7,23.3,71.2,39.1,112.9,44.6c-7.6,6.8-12.9,14.7-13.8,23.8
	c-0.8,8.2,2,17.3,10,27.4c4.1,5.3,9.7,10.8,16.8,16.6c4.7,3.8,8.6,7.6,11.8,11.3C244.7,423,248.1,431.7,248.3,439.9z"/>
<path class="st2" d="M245.8,285.9c-22.8,0-44.6-3.8-65-10.8c0.7-0.1,1.3-0.2,2-0.2c24.9-2.8,50-4.2,75.1-3.9
	c18.5,0.2,37,1.3,55.4,3.3C292.2,281.9,269.5,285.9,245.8,285.9z"/>
<path class="st3" d="M443.7,304.8v80.3c0,8.7-0.6,17.5-1.9,26.2c-1.7,11.9-4.8,23.5-9.4,34.6c-50.3,26-106.7,41.9-166.4,44.8
	c8.2-8.6,15.1-17.8,19.2-27.2c3.8-8.7,5.2-17.5,2.9-26.1c-1.3-4.8-3.7-9.6-7.5-14.2c-2.9-3.5-5.8-6.8-8.8-10
	c-8.7-9.3-17.6-17.3-25.3-24.6c-10.3-9.8-18.3-18.3-20.2-26.3c-1.9-8.3,2.6-16.2,17.6-25h0c0.6,0,1.1,0,1.7,0
	c55.4,0,106.6-17.8,148.2-48c4.8,1.3,9.6,2.6,14.3,4c5.4,1.6,10.7,3.2,16,4.9C430.8,300.2,437.3,302.5,443.7,304.8z"/>
<path class="st3" d="M248.3,439.9c0.3,9.1-3.3,17.6-9.4,25.6c-69.1-1.2-133.7-20.9-189.1-54.2c-0.8-5.1-1.3-10.2-1.5-15.3
	c-0.3-5.4-0.3-10.8-0.3-16.3c0-3.2,0-6.5,0-9.7v-62.5c0-0.5-0.1-0.4,0.3-0.6c0.6-0.5,1.7-0.7,2.4-1c3.9-1.5,7.9-3,11.8-4.3
	c2.1-0.7,4.3-1.5,6.4-2.2c10.1-3.3,20.2-6.3,30.5-8.9c32.7,23.3,71.2,39.1,112.9,44.6c-7.6,6.8-12.9,14.7-13.8,23.8
	c-0.8,8.2,2,17.3,10,27.4c4.1,5.3,9.7,10.8,16.8,16.6c4.7,3.8,8.6,7.6,11.8,11.3C244.7,423,248.1,431.7,248.3,439.9z"/>
<path class="st2" d="M245.8,285.9c-22.8,0-44.6-3.8-65-10.8c0.7-0.1,1.3-0.2,2-0.2c24.9-2.8,50-4.2,75.1-3.9
	c18.5,0.2,37,1.3,55.4,3.3C292.2,281.9,269.5,285.9,245.8,285.9z"/>
<path class="st3" d="M443.7,304.8v80.3c0,8.7-0.6,17.5-1.9,26.2c-46.6,28.1-99.8,46.4-156.6,52.3c3.8-8.7,5.2-17.5,2.9-26.1
	c-1.3-4.8-3.7-9.6-7.5-14.2c-2.9-3.5-5.8-6.8-8.8-10c-8.7-9.3-17.6-17.3-25.3-24.6c-10.3-9.8-18.3-18.3-20.2-26.3
	c-1.9-8.3,2.6-16.2,17.6-25h0c0.6,0,1.1,0,1.7,0c55.4,0,106.6-17.8,148.2-48c4.8,1.3,9.6,2.6,14.3,4c5.4,1.6,10.7,3.2,16,4.9
	C430.8,300.2,437.3,302.5,443.7,304.8z"/>
<path class="st3" d="M237,414.1c7.6,8.9,11,17.6,11.3,25.8c-0.8,0-1.6,0-2.4,0c-73.3,0-141.4-22.2-197.9-60.2c0-3.2,0-6.5,0-9.7
	v-62.5c0-0.5-0.1-0.4,0.3-0.6c0.6-0.5,1.7-0.7,2.4-1c3.9-1.5,7.9-3,11.8-4.3c2.1-0.7,4.3-1.5,6.4-2.2c10.1-3.3,20.2-6.3,30.5-8.9
	c32.7,23.3,71.2,39.1,112.9,44.6c-7.6,6.8-12.9,14.7-13.8,23.8c-0.8,8.2,2,17.3,10,27.4c4.1,5.3,9.7,10.8,16.8,16.6
	C230,406.7,233.9,410.4,237,414.1z"/>
<path class="st2" d="M245.8,285.9c-22.8,0-44.6-3.8-65-10.8c0.7-0.1,1.3-0.2,2-0.2c24.9-2.8,50-4.2,75.1-3.9
	c18.5,0.2,37,1.3,55.4,3.3C292.2,281.9,269.5,285.9,245.8,285.9z"/>
<path class="st3" d="M443.7,304.8v74.9c-45.5,30.6-98.4,50.9-155.5,57.7c-1.3-4.8-3.7-9.6-7.5-14.2c-2.9-3.5-5.8-6.8-8.8-10
	c-8.7-9.3-17.6-17.3-25.3-24.6c-10.3-9.8-18.3-18.3-20.2-26.3c-1.9-8.3,2.6-16.2,17.6-25h0c0.6,0,1.1,0,1.7,0
	c55.4,0,106.6-17.8,148.2-48c4.8,1.3,9.6,2.6,14.3,4c5.4,1.6,10.7,3.2,16,4.9C430.8,300.2,437.3,302.5,443.7,304.8z"/>
<path class="st3" d="M237,414.1C166.2,412.3,100.9,388,48,348.2v-40.7c0-0.5-0.1-0.4,0.3-0.6c0.6-0.5,1.7-0.7,2.4-1
	c3.9-1.5,7.9-3,11.8-4.3c2.1-0.7,4.3-1.5,6.4-2.2c10.1-3.3,20.2-6.3,30.5-8.9c32.7,23.3,71.2,39.1,112.9,44.6
	c-7.6,6.8-12.9,14.7-13.8,23.8c-0.8,8.2,2,17.3,10,27.4c4.1,5.3,9.7,10.8,16.8,16.6C230,406.7,233.9,410.4,237,414.1z"/>
<path class="st2" d="M245.8,285.9c-22.8,0-44.6-3.8-65-10.8c0.7-0.1,1.3-0.2,2-0.2c24.9-2.8,50-4.2,75.1-3.9
	c18.5,0.2,37,1.3,55.4,3.3C292.2,281.9,269.5,285.9,245.8,285.9z"/>
<path class="st3" d="M443.7,304.8v43.4c-48.6,36.5-107.6,60-171.8,65c-8.7-9.3-17.6-17.3-25.3-24.6c-10.3-9.8-18.3-18.3-20.2-26.3
	c-1.9-8.3,2.6-16.2,17.6-25h0c0.6,0,1.1,0,1.7,0c55.4,0,106.6-17.8,148.2-48c4.8,1.3,9.6,2.6,14.3,4c5.4,1.6,10.7,3.2,16,4.9
	C430.8,300.2,437.3,302.5,443.7,304.8z"/>
<path class="st3" d="M99.4,290.4c32.7,23.3,71.2,39.1,112.9,44.6c-7.6,6.8-12.9,14.7-13.8,23.8c-0.8,8.2,2,17.3,10,27.4
	c-60.9-7.5-116.3-33-160.5-71v-7.8c0-0.5-0.1-0.4,0.3-0.6c0.6-0.5,1.7-0.7,2.4-1c3.9-1.5,7.9-3,11.8-4.3c2.1-0.7,4.3-1.5,6.4-2.2
	C78.9,296.1,89.1,293.1,99.4,290.4z"/>
<path class="st2" d="M245.8,285.9c-22.8,0-44.6-3.8-65-10.8c0.7-0.1,1.3-0.2,2-0.2c24.9-2.8,50-4.2,75.1-3.9
	c18.5,0.2,37,1.3,55.4,3.3C292.2,281.9,269.5,285.9,245.8,285.9z"/>
<path class="st3" d="M443.7,304.8v10.4c-53,45.5-121.8,73.1-197.1,73.3c-10.3-9.8-18.3-18.3-20.2-26.3c-1.9-8.3,2.6-16.2,17.6-25h0
	c0.6,0,1.1,0,1.7,0c55.4,0,106.6-17.8,148.2-48c4.8,1.3,9.6,2.6,14.3,4c5.4,1.6,10.7,3.2,16,4.9
	C430.8,300.2,437.3,302.5,443.7,304.8z"/>
<path class="st3" d="M99.4,290.4c32.7,23.3,71.2,39.1,112.9,44.6c-7.6,6.8-12.9,14.7-13.8,23.8c-48.7-8.3-93.1-29.4-129.6-59.5
	C78.9,296.1,89.1,293.1,99.4,290.4z"/>
<path class="st2" d="M245.8,285.9c-22.8,0-44.6-3.8-65-10.8c0.7-0.1,1.3-0.2,2-0.2c24.9-2.8,50-4.2,75.1-3.9
	c18.5,0.2,37,1.3,55.4,3.3C292.2,281.9,269.5,285.9,245.8,285.9z"/>
<path class="st3" d="M424.3,298.1c-48.3,40.5-110.5,64.8-178.5,64.8c-6.5,0-13-0.2-19.4-0.7c-1.9-8.3,2.6-16.2,17.6-25h0
	c0.6,0,1.1,0,1.7,0c55.4,0,106.6-17.8,148.2-48c4.8,1.3,9.6,2.6,14.3,4C413.7,294.7,419,296.4,424.3,298.1z"/>
<path class="st2" d="M313.2,274.4c-21.1,7.5-43.8,11.6-67.4,11.6c-22.8,0-44.6-3.8-65-10.8c0.7-0.1,1.3-0.2,2-0.2
	c24.9-2.8,50-4.2,75.1-3.9C276.3,271.3,294.8,272.4,313.2,274.4z"/>
<path class="st2" d="M313.2,274.4c-21.1,7.5-43.8,11.6-67.4,11.6c-22.8,0-44.6-3.8-65-10.8c0.7-0.1,1.3-0.2,2-0.2
	c24.9-2.8,50-4.2,75.1-3.9C276.3,271.3,294.8,272.4,313.2,274.4z"/>
<rect x="124.1" y="160.8" class="st4" width="243.5" height="126.9"/>
<polygon class="st6" points="354.2,127 338.5,127 338.5,109.3 319.8,109.3 319.8,127 293.9,127 293.9,109.3 275.2,109.3 275.2,127 
	137.5,127 114.3,164.4 377.4,164.4 "/>
<path class="st6" d="M177,198.3h-31.6c-2.7,0-4.8-2.2-4.8-4.8v-2.8c0-2.7,2.2-4.8,4.8-4.8H177c2.7,0,4.8,2.2,4.8,4.8v2.8
	C181.9,196.2,179.7,198.3,177,198.3z"/>
<path class="st6" d="M261.7,198.3h-31.6c-2.7,0-4.8-2.2-4.8-4.8v-2.8c0-2.7,2.2-4.8,4.8-4.8h31.6c2.7,0,4.8,2.2,4.8,4.8v2.8
	C266.5,196.2,264.3,198.3,261.7,198.3z"/>
<path class="st6" d="M346.3,198.3h-31.6c-2.7,0-4.8-2.2-4.8-4.8v-2.8c0-2.7,2.2-4.8,4.8-4.8h31.6c2.7,0,4.8,2.2,4.8,4.8v2.8
	C351.2,196.2,349,198.3,346.3,198.3z"/>
<path class="st6" d="M346.3,257.5h-31.6c-2.7,0-4.8-2.2-4.8-4.8v-2.8c0-2.7,2.2-4.8,4.8-4.8h31.6c2.7,0,4.8,2.2,4.8,4.8v2.8
	C351.2,255.4,349,257.5,346.3,257.5z"/>
<path class="st6" d="M284.2,214.2c-5.7,0-11,1.9-15.3,5.1c-1,0.8-0.5,2.4,0.8,2.4h29c1.3,0,1.8-1.6,0.8-2.4
	C295.3,216,290,214.2,284.2,214.2z"/>
<path class="st6" d="M167.2,236.2c-9.6,0-17.4,23-17.4,51.5h34.9C184.7,259.3,176.9,236.2,167.2,236.2z"/>
<path class="st6" d="M213.6,236.2c-9.6,0-17.4,23-17.4,51.5h34.9C231.1,259.3,223.3,236.2,213.6,236.2z"/>
<path class="st6" d="M284.2,236.2c-9.6,0-17.4,23-17.4,51.5h34.9C301.7,259.3,293.9,236.2,284.2,236.2z"/>
<line class="st2" x1="124.1" y1="175.8" x2="136.3" y2="175.8"/>
<line class="st2" x1="124.1" y1="208.8" x2="143.9" y2="208.8"/>
<line class="st2" x1="124.1" y1="221.1" x2="161.4" y2="221.1"/>
<line class="st2" x1="124.1" y1="233.3" x2="146.8" y2="233.3"/>
<line class="st2" x1="124.1" y1="262.6" x2="134" y2="262.6"/>
<line class="st2" x1="124.1" y1="275.5" x2="140.7" y2="275.5"/>
<line class="st2" x1="318.1" y1="275.5" x2="334.7" y2="275.5"/>
<line class="st2" x1="351" y1="275.5" x2="367.7" y2="275.5"/>
<line class="st2" x1="347.9" y1="225.6" x2="367.7" y2="225.6"/>
<line class="st2" x1="355.5" y1="211.9" x2="367.7" y2="211.9"/>
<path class="st7" d="M170.8,436c-12.5,8.5-41.4-14.1-41.4-14.1c-15.7-1.9-18.3-18.1-18.3-18.1c-6.6,24.4,15,26.7,15,26.7l-16.9,74.2
	c-3.1-2-6.2-4.2-9.2-6.5c-4.8-3.6-9.3-7.6-13.5-11.8C77,477,68.9,466.1,62.9,454c-1.3-2.6-2.6-5.3-3.7-8c-2.1-5.1-3.9-10.3-5.4-15.6
	c7.6-14.4,23.8-42.7,38.7-53.6c20.2-14.9,44.6-3.7,44.6-3.7c5.3-7.4,14.1-10.1,14.1-10.1c0.5,8.5-2.1,20.2-2.1,20.2
	C167.1,404.4,183.3,427.5,170.8,436z"/>
<path class="st7" d="M97.3,373.7c0,0-8.1,16,3.1,29.2"/>
<path class="st7" d="M78.8,390.6c0,0-1.9,13.7,11,26.6"/>
<path class="st7" d="M67.7,407.1c0,0,0.1,18.6,15.7,26.3"/>
<g>
	<path class="st0" d="M353.5,519.5c-0.5,0-1-0.1-1.4-0.4c-0.7-0.5-1.1-1.2-1.1-2.1v-28.3c-21.8-2.2-38.6-20.6-38.6-42.8
		c0-12.5,5.3-29.9,13.3-43.4c0.4-0.8,1.3-1.2,2.2-1.2H383c0.9,0,1.7,0.5,2.2,1.2c7.9,13.5,13.3,30.9,13.3,43.4
		c0,21.8-16.4,40.1-37.8,42.7V515c0,1-0.6,1.9-1.5,2.3l-4.6,2C354.2,519.5,353.9,519.5,353.5,519.5z"/>
	<path class="st8" d="M383,403.9c7.9,13.5,12.9,30.4,12.9,42.1c0,21.5-16.7,39-37.8,40.4V515l-4.6,2v-30.6
		c-21.5-1-38.6-18.7-38.6-40.5c0-11.7,5-28.6,12.9-42.1H383 M383,398.9h-55.2c-1.8,0-3.4,0.9-4.3,2.5c-8.1,13.8-13.6,31.8-13.6,44.7
		c0,22.7,16.6,41.7,38.6,45V517c0,1.7,0.9,3.3,2.3,4.2c0.8,0.5,1.8,0.8,2.7,0.8c0.7,0,1.4-0.1,2-0.4l4.6-2c1.8-0.8,3-2.6,3-4.6
		v-24.2c21.5-3.7,37.8-22.6,37.8-44.9c0-12.9-5.5-30.9-13.6-44.7C386.4,399.8,384.8,398.9,383,398.9L383,398.9z"/>
</g>
<path class="st7" d="M351.5,438.6c8.8,3.3,27.9,4.7,36.3,5.2c-0.4-6.5-2.8-12.5-6.5-17.5h-51.7c-1.7,2.3-3.2,4.8-4.3,7.5
	C331.7,434.3,343.6,435.6,351.5,438.6z"/>
<path class="st7" d="M348.7,446.1c-7.5-2.8-19.9-4-25.4-4.4c-0.2,1.4-0.3,2.8-0.3,4.2c0,17.9,14.5,32.5,32.5,32.5
	c16,0,29.2-11.5,32-26.7C378.5,451.3,358.6,449.9,348.7,446.1z"/>
<circle class="st7" cx="368.4" cy="404.1" r="10.3"/>
<circle class="st7" cx="389.3" cy="394.9" r="10.3"/>
<circle class="st7" cx="410.1" cy="385.7" r="10.3"/>
<circle class="st7" cx="406.2" cy="433.4" r="10.3"/>
<circle class="st7" cx="387.2" cy="418.8" r="10.3"/>
<circle class="st7" cx="408.1" cy="409.6" r="10.3"/>
<path class="st7" d="M373.5,385.7c0,0-3.8-7.1-2.4-11c0,0-13.9,4-16-4.6s0.6-11,0.6-11s7.8,5.3,9.5,0.8c0,0-7.7-12.4,2.6-26.6
	c0,0,6-7.1,4.3-9.9c0,0,19.6,9,17.4,17.7s-4.2,11.1,3.5,8.9c7.8-2.2,13.6-3.2,14.6-1.1c1,2.1-1.4,16-8.3,17.6c0,0,5.5,4.4-1.9,7.4
	c-7.3,3-15.9,2.1-17.9-1.2C379.6,372.8,373.5,376.1,373.5,385.7z"/>
<line class="st7" x1="94.5" y1="301.4" x2="94.5" y2="315.4"/>
<line class="st7" x1="124.1" y1="317.6" x2="124.1" y2="331.7"/>
<line class="st7" x1="153.7" y1="331.9" x2="153.7" y2="345.9"/>
<line class="st7" x1="181.9" y1="338.9" x2="181.9" y2="352.9"/>
<line class="st7" x1="249.4" y1="347.5" x2="249.4" y2="361.6"/>
<line class="st7" x1="290.4" y1="345.3" x2="290.4" y2="359.3"/>
<line class="st7" x1="337.2" y1="331.3" x2="337.2" y2="345.4"/>
<line class="st7" x1="395.9" y1="303.6" x2="395.9" y2="317.6"/>
<line class="st7" x1="426.2" y1="313.4" x2="426.2" y2="327.5"/>
<line class="st7" x1="321.2" y1="363.9" x2="321.2" y2="378"/>
<line class="st7" x1="272.6" y1="373.4" x2="272.6" y2="387.4"/>
<line class="st7" x1="284.2" y1="396.8" x2="284.2" y2="410.9"/>
<line class="st7" x1="351" y1="381.6" x2="351" y2="395.6"/>
<line class="st7" x1="422.1" y1="347.5" x2="422.1" y2="361.6"/>
<line class="st7" x1="431.6" y1="370.9" x2="431.6" y2="385"/>
<line class="st7" x1="424.3" y1="434.7" x2="424.3" y2="448.7"/>
<line class="st7" x1="394" y1="475.7" x2="394" y2="489.8"/>
<line class="st7" x1="327.9" y1="493.1" x2="327.9" y2="507.1"/>
<line class="st7" x1="278.2" y1="500.1" x2="278.2" y2="514.2"/>
<line class="st7" x1="307.4" y1="471.1" x2="307.4" y2="485.1"/>
<line class="st7" x1="125.8" y1="483.7" x2="125.8" y2="497.7"/>
<line class="st7" x1="158.2" y1="494.2" x2="158.2" y2="508.2"/>
<line class="st7" x1="194.1" y1="472.8" x2="194.1" y2="486.9"/>
<line class="st7" x1="146" y1="464.1" x2="146" y2="478.1"/>
<line class="st7" x1="179.1" y1="444.1" x2="179.1" y2="458.2"/>
<line class="st7" x1="221.6" y1="450.1" x2="221.6" y2="464.1"/>
<line class="st7" x1="199.2" y1="422" x2="199.2" y2="436.1"/>
<line class="st7" x1="170.5" y1="390" x2="170.5" y2="404"/>
<line class="st7" x1="205.7" y1="396" x2="205.7" y2="410.1"/>
<line class="st7" x1="56.4" y1="370.9" x2="56.4" y2="385"/>
<line class="st7" x1="74.4" y1="351.9" x2="74.4" y2="365.9"/>
<line class="st7" x1="61.4" y1="311.6" x2="61.4" y2="325.6"/>
<line class="st7" x1="94.5" y1="333.5" x2="94.5" y2="347.5"/>
<line class="st7" x1="128.1" y1="349.6" x2="128.1" y2="363.6"/>
<line class="st7" x1="167.2" y1="363.3" x2="167.2" y2="377.3"/>
<line class="st7" x1="313.2" y1="389.8" x2="313.2" y2="403.9"/>
<line class="st7" x1="426.2" y1="406.2" x2="426.2" y2="420.2"/>
<path class="st9" d="M0,517.8l29.9-19.5l5.1,7.9l-23.4,15.3l8.4,12.8l-6.5,4.2L0,517.8z"/>
<path class="st9" d="M18.4,544.3L44,519.4l17.9,18.4l-5.1,5l-11.6-12l-4.9,4.8L51,546.7l-5.2,5l-10.8-11.1l-5.3,5.1l11.6,12l-5.2,5
	L18.4,544.3z"/>
<path class="st9" d="M52.4,575.6c-2.3-1.7-4.4-3.5-6.1-5.6c-1.7-2.1-2.9-4.1-3.7-6.1l6.3-4.4c0.5,1.2,1.1,2.4,1.9,3.6
	c0.8,1.2,1.7,2.3,2.7,3.4c1,1.1,2.1,2,3.3,2.9c1.8,1.3,3.2,1.9,4.3,2c1,0,1.8-0.3,2.3-1.1c0.5-0.7,0.6-1.3,0.4-2
	c-0.2-0.7-0.9-1.7-2-2.8l-4.3-4.6c-2.3-2.4-3.6-4.8-4-7.1s0.2-4.6,1.8-6.8c1.4-1.9,3.1-3.2,5.1-3.9c2-0.7,4.3-0.8,6.7-0.2
	c2.4,0.5,4.9,1.7,7.4,3.5c2.1,1.5,3.8,3.1,5.2,5c1.4,1.9,2.4,3.7,2.8,5.5l-6.1,4c-0.5-1.6-1.3-3.1-2.4-4.5c-1.1-1.4-2.5-2.7-4.1-3.9
	c-1.6-1.1-3-1.7-4.1-1.8c-1.2-0.1-2,0.3-2.7,1.2c-0.4,0.6-0.6,1.3-0.4,2.1c0.2,0.8,0.8,1.8,1.9,2.9l4.3,4.5c2.3,2.4,3.6,4.8,4,7.1
	c0.4,2.3-0.2,4.5-1.7,6.7c-1.3,1.9-3,3.2-5,3.8s-4.2,0.7-6.6,0.2C57.4,578.5,55,577.4,52.4,575.6z"/>
<path class="st9" d="M84.9,594.2l14-32.9l23.1,9.8l-2.8,6.6l-14.5-6.1l-2.8,6.7l13.4,5.7l-2.8,6.6L99,584.8l-5.5,13.1L84.9,594.2z"
	/>
<path class="st9" d="M117.1,588.5c1-3.6,2.6-6.5,4.7-8.7c2.1-2.3,4.7-3.7,7.7-4.5s6.3-0.6,9.8,0.4c3.6,1,6.5,2.6,8.6,4.8
	c2.2,2.2,3.6,4.8,4.3,7.9c0.7,3.1,0.5,6.4-0.5,9.9c-1,3.5-2.6,6.4-4.8,8.7c-2.2,2.3-4.8,3.8-7.8,4.5c-3,0.7-6.3,0.6-9.9-0.4
	c-3.5-1-6.4-2.6-8.6-4.8c-2.2-2.2-3.6-4.9-4.2-7.9S116.1,592.1,117.1,588.5z M126.5,591.2c-0.9,3.2-1,5.9-0.2,8.1
	c0.8,2.2,2.5,3.6,5.2,4.4c2.7,0.8,4.9,0.4,6.8-1c1.8-1.4,3.2-3.7,4.1-7c0.9-3.2,1-5.9,0.1-8.1c-0.8-2.2-2.6-3.6-5.2-4.4
	c-2.7-0.8-4.9-0.4-6.7,1C128.8,585.6,127.4,587.9,126.5,591.2z"/>
<path class="st9" d="M169.3,620c-5.3-0.9-9-2.8-11.2-5.9c-2.2-3-2.9-7.1-2-12.3l3.3-20.3l9.2,1.5l-3.3,20.3
	c-0.4,2.6-0.2,4.6,0.6,6.1c0.8,1.5,2.4,2.4,4.7,2.8c2.3,0.4,4,0,5.3-1.2c1.3-1.1,2.1-3,2.6-5.6l3.3-20.3l9.1,1.5l-3.3,20.3
	c-0.9,5.2-2.8,8.8-5.8,11S174.5,620.8,169.3,620z"/>
<path class="st9" d="M191.9,622.7l2.8-35.6l16.8,1.3c4.1,0.3,7.2,1.5,9.3,3.7c2.1,2.1,3,4.9,2.7,8.4c-0.2,2.3-0.8,4.3-2,5.8
	s-2.7,2.7-4.7,3.5c-2,0.7-4.3,1-7,0.8l0.6-1.2l2.5,0.2c1.5,0.1,2.8,0.6,3.8,1.5c1.1,0.9,1.9,2.1,2.6,3.6l4.6,10.6l-10.2-0.8
	l-4.9-11.8c-0.3-0.8-0.8-1.3-1.5-1.6c-0.7-0.3-1.5-0.5-2.4-0.6l-2.6-0.2l-1,13.3L191.9,622.7z M202.8,603.6l5.9,0.5
	c1.8,0.1,3.2-0.1,4.2-0.8c1-0.7,1.6-1.7,1.7-3.1c0.1-1.4-0.3-2.5-1.2-3.3c-0.9-0.8-2.2-1.2-4.1-1.4l-5.9-0.5L202.8,603.6z"/>
<path class="st9" d="M241.4,625.9c-2.9,0-5.6-0.4-8.2-1.1c-2.6-0.7-4.7-1.7-6.5-2.9l2.7-7.2c1.1,0.7,2.3,1.3,3.6,1.9
	c1.3,0.5,2.7,0.9,4.1,1.2c1.4,0.3,2.9,0.5,4.4,0.5c2.2,0,3.8-0.3,4.6-0.8c0.9-0.6,1.3-1.3,1.3-2.2c0-0.8-0.3-1.4-0.8-1.9
	s-1.6-0.9-3.2-1.2l-6.2-1.3c-3.3-0.7-5.7-1.9-7.3-3.6c-1.6-1.7-2.4-3.9-2.4-6.6c0-2.4,0.7-4.4,1.9-6.1s3.1-3.1,5.4-4
	c2.3-0.9,5-1.4,8.1-1.4c2.5,0,4.9,0.4,7.1,1.1c2.2,0.7,4,1.7,5.5,2.9l-2.7,6.8c-1.3-1-2.9-1.8-4.5-2.3c-1.7-0.5-3.6-0.8-5.6-0.8
	c-2,0-3.4,0.3-4.4,0.9c-1,0.6-1.5,1.4-1.5,2.5c0,0.7,0.3,1.4,0.9,1.9c0.6,0.5,1.7,1,3.3,1.3l6.1,1.3c3.3,0.7,5.7,1.8,7.3,3.5
	c1.6,1.7,2.4,3.8,2.4,6.5c0,2.3-0.7,4.3-1.9,6s-3.1,3-5.3,4C247.2,625.5,244.5,625.9,241.4,625.9z"/>
<path class="st9" d="M271.8,625.2l13.5-37.1l7.6-0.7l19.9,34.1l-9.3,0.8l-5.2-9.4l3.8,2.3l-20.9,1.9l3.3-2.9l-3.4,10.2L271.8,625.2z
	 M285.8,585.1l-9.6-8.1l9-0.8l6.8,8.4L285.8,585.1z M289.9,597.4l-4.6,14.6l-1.6-2.2l14.8-1.3l-1,2.5l-7.2-13.6L289.9,597.4z"/>
<path class="st9" d="M347.3,615.5c-3.8,0.8-7.2,0.8-10.3-0.1c-3.1-0.9-5.7-2.5-7.8-4.9c-2.1-2.4-3.5-5.4-4.3-9
	c-0.8-3.6-0.7-7,0.2-10c0.9-3,2.6-5.6,5-7.7c2.4-2.1,5.5-3.5,9.3-4.4c2.4-0.5,4.7-0.7,6.8-0.5s4,0.8,5.6,1.7l-1.2,7.8
	c-1.8-0.8-3.3-1.2-4.7-1.4c-1.4-0.2-2.9-0.1-4.5,0.3c-3,0.6-5.1,2-6.3,4.1c-1.2,2.1-1.5,4.7-0.8,8c0.7,3.3,2.1,5.6,4,7
	c2,1.4,4.5,1.8,7.4,1.1c1.6-0.4,3-0.9,4.2-1.6c1.2-0.7,2.4-1.8,3.7-3.2l4.3,6.6c-1.1,1.5-2.6,2.8-4.4,3.8
	C351.9,614.1,349.7,614.9,347.3,615.5z"/>
<path class="st9" d="M364.9,610.8L353.2,577l8.9-3.1l4.5,13l13.6-4.7l-4.5-13l8.9-3.1l11.7,33.8l-8.9,3.1l-4.7-13.5l-13.6,4.7
	l4.7,13.5L364.9,610.8z"/>
<path class="st9" d="M400.5,598.5l-2.3-39.4l6.7-3.6l31.8,23.4l-8.2,4.5l-8.5-6.6l4.4,0.6l-18.5,10l1.9-4l0.9,10.7L400.5,598.5z
	 M406.1,565.8l1.5,15.3l-2.4-1.4l13.1-7.1l0,2.7l-12-9.6L406.1,565.8z"/>
<path class="st9" d="M453.4,566c-4.1,3.4-8,5-11.7,4.7s-7.3-2.5-10.7-6.5l-13.2-15.7l7.2-6l13.2,15.8c1.7,2,3.3,3.2,5,3.5
	c1.7,0.3,3.4-0.2,5.2-1.7c1.8-1.5,2.6-3.1,2.6-4.8c0-1.7-0.9-3.6-2.5-5.6l-13.2-15.8l7.1-5.9l13.2,15.7c3.4,4,4.9,7.9,4.5,11.6
	S457.5,562.6,453.4,566z"/>
<path class="st9" d="M469.1,551.9l-6.9-24.3l3.4,2.5l-24.8-0.1l6.6-8.7l16,0.5l-1.8,2.4l-4.8-15.2l6.6-8.7l6.8,23.9l-3.4-2.5
	l25.3-0.1l-6.6,8.7l-16.4-0.4l1.8-2.4l4.9,15.7L469.1,551.9z"/>
<path class="st0" d="M156.7,641.9c2.3,0,4.1,0.2,5.3,0.7c1.2,0.5,2.3,1,3.2,1.5c0.5,0.3,0.8,0.5,1.1,0.6c0.3,0.1,0.6,0.2,0.8,0.2
	c0.4,0,0.7-0.2,0.8-0.6c0.2-0.4,0.3-1.1,0.4-1.9h1.3c0,0.7-0.1,1.6-0.1,2.6c-0.1,1-0.1,2.4-0.1,4c0,1.7,0,3.9,0,6.6h-1.3
	c-0.2-2-0.6-4-1.4-5.9c-0.8-1.9-1.9-3.5-3.3-4.7c-1.4-1.2-3.2-1.8-5.2-1.8c-1.9,0-3.4,0.5-4.6,1.6c-1.2,1-1.8,2.5-1.8,4.4
	c0,1.6,0.4,2.9,1.2,4c0.8,1.1,1.9,2.2,3.4,3.2c1.5,1,3.3,2.3,5.4,3.8c1.9,1.2,3.5,2.4,5,3.6c1.5,1.2,2.7,2.6,3.5,4.1
	c0.9,1.5,1.3,3.3,1.3,5.4c0,2.6-0.7,4.7-2,6.3c-1.3,1.7-3.1,2.9-5.3,3.8c-2.2,0.8-4.6,1.3-7.2,1.3c-2.4,0-4.3-0.2-5.8-0.7
	c-1.4-0.5-2.6-1-3.6-1.5c-0.9-0.5-1.5-0.8-2-0.8c-0.4,0-0.7,0.2-0.8,0.6c-0.2,0.4-0.3,1.1-0.4,1.9h-1.3c0.1-0.9,0.1-2,0.1-3.3
	c0-1.2,0-2.9,0.1-4.9c0-2,0-4.5,0-7.6h1.3c0.2,2.6,0.6,5,1.3,7.2c0.7,2.2,1.8,4,3.3,5.4c1.5,1.4,3.5,2,6,2c1.4,0,2.6-0.2,3.6-0.7
	c1.1-0.5,1.9-1.2,2.6-2.2c0.7-1,1-2.2,1-3.6c0-1.6-0.4-3-1.1-4.2c-0.8-1.2-1.8-2.3-3.1-3.4c-1.3-1-2.8-2.1-4.5-3.2
	c-1.8-1.2-3.5-2.4-5.1-3.6c-1.6-1.2-2.9-2.6-3.8-4.1c-1-1.6-1.4-3.4-1.4-5.5c0-2.4,0.6-4.4,1.8-6c1.2-1.6,2.8-2.7,4.8-3.5
	C152.3,642.2,154.4,641.9,156.7,641.9z"/>
<path class="st0" d="M183.5,684.2c-1.7,0-3.2-0.3-4.4-1c-1.2-0.7-2-1.5-2.6-2.6c-0.5-1.1-0.8-2.3-0.8-3.6c0-1.7,0.4-3,1.1-4.1
	c0.8-1,1.7-1.9,2.9-2.6c1.2-0.7,2.5-1.2,3.8-1.6c1.3-0.4,2.6-0.8,3.8-1.3s2.2-0.9,3-1.5c0.8-0.6,1.1-1.3,1.1-2.2v-4.5
	c0-1-0.2-1.9-0.5-2.7c-0.3-0.8-0.8-1.4-1.5-1.8c-0.7-0.4-1.6-0.6-2.6-0.6c-0.8,0-1.6,0.1-2.3,0.3c-0.8,0.2-1.4,0.6-1.9,1.1
	c1.1,0.4,1.9,1,2.5,1.8c0.6,0.8,0.9,1.7,0.9,2.7c0,1.3-0.5,2.4-1.4,3.1c-0.9,0.8-2,1.2-3.2,1.2c-1.4,0-2.5-0.4-3.2-1.3
	c-0.7-0.9-1.1-1.9-1.1-3.2c0-1.1,0.3-2.1,0.8-2.8c0.6-0.7,1.3-1.4,2.4-2.1c1.1-0.6,2.4-1.1,3.9-1.5c1.5-0.3,3.2-0.5,5-0.5
	c1.8,0,3.4,0.2,4.8,0.6c1.4,0.4,2.6,1,3.6,2c0.9,0.9,1.5,2,1.7,3.3c0.3,1.3,0.4,2.9,0.4,4.9v15.8c0,1,0.1,1.6,0.3,2
	c0.2,0.4,0.5,0.6,1,0.6c0.3,0,0.7-0.1,1-0.3c0.3-0.2,0.7-0.4,1.1-0.7l0.6,1c-0.8,0.7-1.8,1.2-2.8,1.6c-1.1,0.4-2.3,0.6-3.6,0.6
	c-1.4,0-2.6-0.2-3.4-0.6c-0.9-0.4-1.5-1-1.8-1.7c-0.4-0.7-0.6-1.5-0.6-2.4c-0.9,1.5-2.1,2.6-3.4,3.5
	C187.1,683.8,185.4,684.2,183.5,684.2z M187.7,680.5c0.8,0,1.5-0.2,2.1-0.6c0.6-0.4,1.3-1,1.8-1.8v-11.9c-0.3,0.6-0.8,1.1-1.5,1.6
	c-0.6,0.5-1.3,0.9-2,1.4c-0.7,0.5-1.4,1-2,1.6c-0.6,0.6-1.2,1.3-1.5,2.2c-0.4,0.9-0.6,1.9-0.6,3.1c0,1.5,0.3,2.6,1,3.4
	C185.7,680.1,186.6,680.5,187.7,680.5z"/>
<path class="st0" d="M234.6,653.1v24.4c0,1.7,0.3,3,0.8,3.9c0.5,0.8,1.5,1.3,2.9,1.3v1.2c-1.2-0.1-2.4-0.2-3.6-0.2
	c-1.6,0-3.1,0.1-4.5,0.2c-1.4,0.1-2.7,0.3-4,0.6v-5.2c-0.9,1.9-2.2,3.3-3.9,4.2c-1.6,0.8-3.5,1.3-5.5,1.3c-1.6,0-2.9-0.2-4-0.6
	c-1-0.4-1.8-1-2.4-1.6c-0.7-0.7-1.1-1.7-1.4-2.9c-0.3-1.2-0.4-2.8-0.4-4.7v-14.7c0-1.7-0.3-3-0.8-3.9s-1.5-1.3-2.9-1.3v-1.2
	c1.2,0.1,2.4,0.2,3.6,0.2c1.6,0,3.1-0.1,4.6-0.2c1.4-0.1,2.7-0.3,3.9-0.6v24.1c0,1,0.1,1.8,0.3,2.6c0.2,0.7,0.5,1.3,1,1.7
	c0.5,0.4,1.2,0.6,2.2,0.6c1,0,2-0.3,2.8-0.9c0.8-0.6,1.5-1.4,2-2.4c0.5-1,0.8-2.2,0.8-3.5v-15.2c0-1.7-0.3-3-0.8-3.9
	s-1.5-1.3-2.9-1.3v-1.2c1.2,0.1,2.4,0.2,3.6,0.2c1.6,0,3.1-0.1,4.6-0.2C232.1,653.6,233.4,653.4,234.6,653.1z"/>
<path class="st0" d="M262,652.9c1.6,0,2.9,0.2,4,0.6c1,0.4,1.8,1,2.4,1.7c0.6,0.7,1.1,1.7,1.3,2.9c0.3,1.2,0.4,2.7,0.4,4.7v15.6
	c0,1.6,0.3,2.7,0.8,3.3c0.5,0.6,1.4,0.9,2.6,0.9v1.2c-0.7,0-1.8-0.1-3.2-0.1c-1.4-0.1-2.8-0.1-4.2-0.1c-1.4,0-2.8,0-4.1,0.1
	c-1.4,0.1-2.4,0.1-3.1,0.1v-1.2c1,0,1.8-0.3,2.2-0.9c0.4-0.6,0.6-1.7,0.6-3.3v-18.1c0-1-0.1-1.8-0.2-2.5c-0.2-0.7-0.5-1.3-0.9-1.7
	c-0.4-0.4-1.1-0.6-2-0.6c-1,0-1.9,0.3-2.8,0.9c-0.9,0.6-1.5,1.4-2.1,2.4c-0.5,1-0.8,2.2-0.8,3.5v16.2c0,1.6,0.2,2.7,0.6,3.3
	c0.4,0.6,1.1,0.9,2.2,0.9v1.2c-0.6,0-1.6-0.1-2.9-0.1c-1.3-0.1-2.6-0.1-4-0.1c-1.5,0-3,0-4.5,0.1c-1.6,0.1-2.7,0.1-3.5,0.1v-1.2
	c1.4,0,2.3-0.3,2.9-0.9c0.6-0.6,0.8-1.7,0.8-3.3v-18.3c0-1.7-0.3-3-0.8-3.9s-1.5-1.3-2.9-1.3v-1.2c1.2,0.1,2.4,0.2,3.6,0.2
	c1.6,0,3.1-0.1,4.6-0.2c1.4-0.1,2.7-0.3,3.9-0.6v5.2c0.9-1.9,2.2-3.3,3.8-4.2C258.4,653.3,260.1,652.9,262,652.9z M279.5,652.9
	c1.6,0,2.9,0.2,4,0.6c1,0.4,1.8,1,2.4,1.7c0.6,0.7,1.1,1.7,1.3,2.9c0.3,1.2,0.4,2.7,0.4,4.7v15.6c0,1.6,0.3,2.7,0.8,3.3
	c0.6,0.6,1.5,0.9,2.9,0.9v1.2c-0.7,0-1.8-0.1-3.3-0.1c-1.5-0.1-2.9-0.1-4.4-0.1c-1.4,0-2.8,0-4.1,0.1c-1.4,0.1-2.4,0.1-3.1,0.1v-1.2
	c1,0,1.8-0.3,2.2-0.9c0.4-0.6,0.6-1.7,0.6-3.3v-18.1c0-1-0.1-1.8-0.3-2.5c-0.2-0.7-0.5-1.3-1-1.7c-0.5-0.4-1.2-0.6-2.2-0.6
	c-1,0-1.9,0.3-2.8,0.9c-0.9,0.6-1.5,1.5-2.1,2.5s-0.8,2.2-0.8,3.5l-0.3-3.5c1-2.3,2.4-3.9,4.2-4.7
	C275.7,653.3,277.5,652.9,279.5,652.9z"/>
<path class="st0" d="M322.5,653.1v24.4c0,1.7,0.3,3,0.8,3.9s1.5,1.3,2.9,1.3v1.2c-1.2-0.1-2.4-0.2-3.6-0.2c-1.6,0-3.1,0.1-4.5,0.2
	c-1.4,0.1-2.7,0.3-4,0.6v-5.2c-0.9,1.9-2.2,3.3-3.9,4.2c-1.6,0.8-3.5,1.3-5.5,1.3c-1.6,0-2.9-0.2-4-0.6c-1-0.4-1.8-1-2.4-1.6
	c-0.7-0.7-1.1-1.7-1.4-2.9c-0.3-1.2-0.4-2.8-0.4-4.7v-14.7c0-1.7-0.3-3-0.8-3.9s-1.5-1.3-2.9-1.3v-1.2c1.2,0.1,2.4,0.2,3.6,0.2
	c1.6,0,3.2-0.1,4.6-0.2s2.7-0.3,3.9-0.6v24.1c0,1,0.1,1.8,0.3,2.6c0.2,0.7,0.5,1.3,1,1.7c0.5,0.4,1.2,0.6,2.2,0.6c1,0,2-0.3,2.8-0.9
	c0.8-0.6,1.5-1.4,2-2.4c0.5-1,0.8-2.2,0.8-3.5v-15.2c0-1.7-0.3-3-0.8-3.9s-1.5-1.3-2.9-1.3v-1.2c1.2,0.1,2.4,0.2,3.6,0.2
	c1.6,0,3.1-0.1,4.6-0.2C320,653.6,321.3,653.4,322.5,653.1z"/>
<path class="st0" d="M348.8,652.9c1.2,0,2.2,0.3,3,0.8c0.8,0.5,1.3,1.2,1.7,2c0.4,0.8,0.6,1.7,0.6,2.6c0,1.4-0.4,2.6-1.3,3.5
	c-0.8,0.9-1.9,1.4-3.3,1.4s-2.4-0.3-3.2-1c-0.8-0.7-1.1-1.6-1.1-2.7c0-1.1,0.2-2,0.7-2.7c0.5-0.7,1.1-1.3,1.8-1.8
	c-0.5-0.2-1.1-0.1-1.6,0.1c-0.7,0.1-1.4,0.4-2.1,0.9c-0.7,0.5-1.2,1.1-1.7,1.8s-0.8,1.5-1.1,2.3c-0.3,0.8-0.4,1.6-0.4,2.4v15.4
	c0,1.9,0.5,3.1,1.4,3.8s2.3,1,4.1,1v1.2c-0.9,0-2.2-0.1-3.9-0.1c-1.7-0.1-3.5-0.1-5.4-0.1c-1.6,0-3.1,0-4.7,0.1
	c-1.6,0.1-2.8,0.1-3.6,0.1v-1.2c1.4,0,2.3-0.3,2.9-0.9c0.6-0.6,0.8-1.7,0.8-3.3v-18.3c0-1.7-0.3-3-0.8-3.9s-1.5-1.3-2.9-1.3v-1.2
	c1.2,0.1,2.4,0.2,3.6,0.2c1.6,0,3.1-0.1,4.6-0.2c1.4-0.1,2.7-0.3,3.9-0.6v5.4c0.5-1,1.1-2,1.9-2.8c0.8-0.9,1.7-1.5,2.7-2
	C346.4,653.2,347.5,652.9,348.8,652.9z"/>
<line class="st10" x1="99.3" y1="667.7" x2="118.9" y2="667.7"/>
<line class="st10" x1="374.5" y1="667.7" x2="394" y2="667.7"/>
</svg>
